<?xml version="1.0" standalone="no"?>
<!DOCTYPE svg PUBLIC "-//W3C//DTD SVG 20010904//EN"
 "http://www.w3.org/TR/2001/REC-SVG-20010904/DTD/svg10.dtd">
<svg version="1.0" xmlns="http://www.w3.org/2000/svg"
 width="740.000000pt" height="740.000000pt" viewBox="0 0 740.000000 740.000000"
 preserveAspectRatio="xMidYMid meet">

<g transform="translate(0.000000,740.000000) scale(0.100000,-0.100000)"
fill="#000000" stroke="none">
<path d="M5295 6838 c-14 -29 -33 -50 -60 -65 -34 -19 -37 -23 -20 -29 35 -12
64 -46 71 -81 3 -18 9 -35 13 -37 4 -3 17 15 30 39 13 24 41 56 63 72 l41 28
-33 6 c-41 9 -70 38 -79 78 l-6 32 -20 -43z m29 -33 c3 -8 19 -23 36 -34 l31
-18 -25 -17 c-14 -9 -33 -31 -42 -49 l-17 -32 -13 30 c-7 17 -21 38 -32 48
-19 18 -19 18 12 51 36 39 42 41 50 21z"/>
<path d="M2849 6794 c0 -5 0 -40 1 -79 1 -83 -20 -131 -68 -155 -45 -21 -34
-34 26 -31 52 3 128 -23 164 -56 20 -18 19 -20 38 62 6 28 22 69 35 92 12 23
20 44 17 47 -3 3 -21 6 -39 6 -49 0 -109 34 -143 82 -17 22 -30 37 -31 32z
m144 -131 c30 -4 37 -9 33 -22 -3 -9 -16 -46 -28 -82 l-23 -67 -35 24 c-19 14
-52 27 -72 31 -21 3 -38 7 -38 9 0 2 9 21 20 41 12 23 20 57 20 85 l0 48 42
-30 c23 -17 59 -33 81 -37z"/>
<path d="M4131 6704 c-35 -29 -56 -91 -48 -141 7 -40 1 -41 -25 -8 -29 37 -90
65 -144 65 -39 0 -51 -5 -80 -34 -29 -29 -34 -41 -34 -82 0 -31 7 -61 20 -82
21 -35 74 -72 103 -72 22 0 22 -5 -5 -43 -16 -22 -24 -50 -26 -93 -4 -59 -3
-62 32 -98 31 -31 43 -36 81 -36 35 0 52 6 78 30 19 16 40 44 47 61 l13 31 19
-36 c37 -72 127 -98 184 -54 77 60 104 148 69 222 -16 33 -78 76 -109 76 -22
0 -20 17 3 25 37 11 81 73 81 112 0 53 -36 120 -83 154 -55 40 -131 41 -176 3z
m145 -13 c45 -27 85 -84 91 -128 8 -62 -42 -111 -136 -132 -23 -5 -43 -5 -46
-1 -8 12 14 62 37 88 18 18 19 22 5 22 -18 0 -57 -45 -57 -66 0 -8 -7 -14 -16
-14 -37 0 -59 146 -30 199 28 51 97 65 152 32z m-286 -114 c44 -23 121 -118
101 -125 -9 -3 -48 6 -96 23 l-20 7 20 -17 c11 -9 32 -21 48 -27 40 -15 34
-41 -13 -56 -87 -27 -163 -5 -195 57 -30 58 -16 119 33 145 38 21 72 19 122
-7z m166 -163 c8 -31 -11 -47 -38 -33 -21 11 -23 30 -6 47 19 19 37 14 44 -14z
m149 -25 c57 -16 105 -68 105 -113 0 -71 -72 -166 -125 -166 -73 0 -116 58
-123 166 -6 88 2 92 72 38 64 -49 68 -37 6 19 -27 25 -50 50 -50 56 0 14 64
14 115 0z m-221 -27 c3 -5 -6 -28 -20 -52 -33 -58 -23 -62 15 -6 55 79 80 32
45 -84 -19 -65 -69 -120 -109 -120 -35 0 -81 27 -94 57 -34 75 13 164 104 196
50 18 53 19 59 9z"/>
<path d="M935 6562 c-7 -34 -65 -92 -93 -92 -10 -1 -4 -8 17 -19 37 -19 60
-53 61 -88 0 -37 18 -36 36 2 9 20 37 53 63 75 43 37 44 40 21 40 -36 1 -69
30 -84 75 l-14 39 -7 -32z m46 -65 l37 -32 -44 -49 c-26 -28 -44 -42 -44 -32
0 9 -13 30 -28 47 l-28 31 31 33 c16 18 32 33 35 33 3 1 21 -13 41 -31z"/>
<path d="M6480 6425 c-1 -5 -1 -41 0 -80 1 -80 -19 -124 -70 -153 -16 -9 -30
-20 -30 -24 0 -5 28 -8 63 -8 61 0 136 -25 151 -49 16 -24 34 -10 40 32 4 24
20 71 36 105 l29 62 -36 0 c-65 0 -126 38 -170 106 -6 11 -12 15 -13 9z m40
-73 c0 -12 70 -49 108 -57 20 -4 31 -12 28 -18 -3 -7 -15 -44 -27 -83 l-22
-71 -35 23 c-19 13 -52 29 -73 34 -22 6 -39 13 -39 15 0 3 9 19 20 37 12 21
20 51 20 81 0 26 5 47 10 47 6 0 10 -4 10 -8z"/>
<path d="M2273 6289 c-185 -31 -339 -163 -393 -335 -28 -92 -27 -217 3 -305
47 -138 150 -264 302 -368 43 -30 186 -110 317 -177 320 -164 420 -237 513
-373 25 -36 54 -89 65 -118 l19 -51 -67 -21 c-160 -48 -311 -191 -410 -387
-59 -117 -113 -306 -163 -571 -6 -35 -15 -60 -20 -57 -5 3 -9 13 -9 23 0 17
-49 118 -163 331 -30 58 -61 124 -68 148 -7 23 -14 42 -17 42 -15 0 -68 -50
-107 -100 -98 -127 -148 -275 -148 -435 -1 -172 62 -336 175 -460 33 -36 59
-67 57 -68 -2 -1 -18 -12 -36 -24 l-32 -23 -86 105 -86 105 -59 273 c-32 149
-68 301 -80 337 -59 174 -138 266 -360 412 -80 53 -162 109 -183 124 -24 17
-41 24 -47 18 -5 -5 -17 -45 -27 -89 -24 -110 -24 -327 0 -415 25 -94 88 -215
150 -290 103 -123 292 -261 480 -350 102 -48 102 -48 184 -153 l83 -105 -26
-46 c-14 -25 -31 -46 -39 -46 -7 0 -24 -9 -38 -20 l-25 -20 -22 35 c-26 42
-85 85 -117 85 -16 0 -34 18 -68 72 -119 182 -287 277 -444 248 -59 -10 -119
-31 -133 -45 -4 -4 15 -34 43 -67 27 -33 58 -77 69 -98 l19 -38 -92 -4 c-126
-5 -166 -26 -296 -154 -57 -56 -101 -108 -99 -115 2 -7 29 -18 59 -24 30 -7
97 -24 149 -38 52 -14 116 -29 143 -33 30 -4 47 -11 47 -20 0 -17 1 -17 -46 0
-48 17 -81 6 -90 -29 -6 -26 -1 -75 11 -106 5 -13 -2 -15 -47 -11 -43 3 -58 0
-80 -18 -33 -25 -35 -54 -8 -95 29 -44 25 -52 -31 -57 -28 -3 -58 -12 -66 -21
-26 -26 -20 -73 13 -108 32 -34 137 -111 169 -124 14 -6 -3 -11 -60 -16 -137
-14 -168 -65 -101 -162 20 -29 36 -61 36 -73 0 -11 -16 -38 -35 -60 -64 -72
-32 -144 71 -160 41 -6 44 -8 30 -23 -9 -10 -19 -31 -22 -48 -7 -37 22 -73 60
-73 21 0 24 -5 28 -54 3 -37 18 -82 46 -140 23 -47 42 -86 42 -88 0 -2 -46 -3
-102 -3 -118 0 -167 -17 -200 -69 -24 -39 -19 -99 13 -132 32 -34 118 -57 190
-52 33 2 59 3 59 1 0 -2 -17 -22 -38 -44 -86 -89 -117 -223 -70 -303 59 -100
178 -99 271 3 43 47 62 83 92 171 l23 65 11 -30 c28 -71 59 -122 97 -162 34
-36 47 -43 80 -43 46 0 78 19 99 61 11 20 23 29 41 29 31 0 93 31 161 81 46
34 73 47 73 35 0 -2 -16 -37 -35 -77 -66 -140 -68 -235 -5 -297 74 -74 186
-39 258 81 35 57 102 234 102 267 0 41 16 18 43 -63 49 -141 121 -227 203
-243 70 -13 146 39 160 110 9 51 -20 135 -75 218 -27 40 -49 74 -48 75 2 1
138 -11 258 -23 76 -7 130 6 169 41 14 13 54 35 90 49 36 15 76 35 89 45 24
18 25 18 70 -9 205 -126 511 -159 740 -80 83 28 83 28 125 11 52 -23 152 -48
237 -60 37 -5 76 -14 87 -20 12 -6 41 -11 66 -11 25 0 46 -2 46 -5 0 -3 -16
-20 -36 -37 -46 -41 -66 -80 -66 -133 0 -78 43 -115 132 -115 43 0 55 5 89 36
22 19 43 49 46 65 l7 31 28 -27 c35 -34 103 -54 148 -44 71 16 116 90 93 152
-10 25 -7 34 18 70 44 64 116 214 142 294 24 76 39 93 39 45 0 -112 136 -422
185 -422 7 0 18 12 24 28 16 41 41 153 41 190 0 17 4 32 8 32 4 0 24 -16 43
-36 32 -33 118 -94 132 -94 4 0 7 27 7 60 0 33 2 60 4 60 2 0 21 -7 42 -16 27
-11 57 -15 99 -11 57 4 122 -13 113 -31 -37 -70 -50 -109 -45 -139 16 -94 110
-149 208 -123 85 23 179 149 179 242 0 44 13 33 38 -30 51 -133 175 -216 265
-178 48 20 69 55 69 115 -1 62 -26 111 -99 198 -31 37 -48 63 -37 58 112 -48
258 -69 327 -46 80 27 115 85 95 158 -24 87 -126 136 -285 137 -51 0 -93 2
-93 3 0 1 17 11 38 22 43 22 108 89 122 127 16 40 11 107 -8 130 -25 32 -55
44 -107 44 -65 0 -107 -21 -176 -87 -64 -61 -65 -60 -43 17 3 8 44 38 92 65
116 67 229 175 275 263 63 122 73 209 52 457 -18 205 -14 283 16 380 27 87 27
87 -28 80 -123 -17 -309 -60 -417 -96 -65 -21 -121 -38 -123 -36 -2 3 -8 55
-13 118 -19 216 -38 339 -52 339 -6 0 -34 -22 -63 -48 -28 -26 -96 -79 -149
-117 -110 -77 -183 -153 -216 -220 -13 -28 -27 -44 -35 -41 -55 21 -157 47
-204 52 -31 4 -62 11 -68 17 -9 6 -17 6 -25 0 -7 -6 -42 -13 -78 -17 -36 -3
-76 -9 -91 -12 l-25 -6 4 64 c3 55 0 70 -27 122 -17 32 -29 61 -26 64 2 3 28
-5 56 -16 110 -46 299 -54 434 -18 103 28 252 110 360 197 55 45 117 92 138
106 20 14 37 29 37 34 0 19 -157 90 -241 108 -30 7 -59 14 -66 16 -16 5 17 81
68 158 32 47 37 59 24 63 -8 4 -71 1 -140 -5 -141 -12 -250 -43 -325 -91 -56
-36 -162 -145 -186 -191 -8 -17 -18 -29 -21 -26 -2 3 26 82 62 175 l67 170
110 16 c199 31 322 81 416 169 59 56 227 265 219 273 -2 3 -35 0 -71 -6 -54
-9 -166 -5 -166 5 0 1 7 22 15 46 26 72 66 241 60 247 -3 4 -47 -4 -98 -17
-362 -93 -537 -262 -537 -520 0 -43 5 -103 11 -133 11 -55 11 -56 -47 -196
-32 -78 -60 -139 -62 -137 -2 2 2 28 9 57 7 29 14 96 14 148 0 87 -3 101 -32
163 -47 99 -220 272 -252 252 -6 -3 -11 -30 -11 -60 0 -30 -9 -103 -21 -162
-14 -73 -20 -135 -17 -193 4 -119 34 -177 154 -299 l92 -93 -41 -102 c-22 -55
-44 -105 -48 -110 -4 -5 -20 0 -36 11 -41 29 -99 46 -165 47 -56 1 -58 2 -69
33 -8 26 -6 45 12 100 15 47 23 103 26 185 7 149 -12 239 -75 357 -79 151 -89
174 -112 271 -28 118 -59 195 -117 284 -62 96 -144 178 -230 233 -83 53 -82
45 -29 158 109 232 338 393 653 459 37 8 133 20 213 26 80 6 170 15 200 21
159 31 273 141 316 304 68 254 -123 533 -412 601 -106 25 -294 15 -399 -20
-159 -54 -304 -146 -449 -286 -260 -250 -445 -579 -526 -935 -13 -55 -24 -101
-25 -103 -1 -1 -22 9 -46 23 -91 52 -229 81 -257 53 -16 -16 -15 -61 0 -76 10
-10 10 -15 -2 -22 -31 -20 -37 -9 -49 98 -58 498 -228 906 -496 1190 -210 224
-493 355 -692 321z m199 -48 c153 -39 297 -130 453 -286 276 -274 423 -615
510 -1178 l17 -108 -41 -38 c-47 -44 -61 -75 -61 -139 0 -64 29 -108 87 -134
86 -38 193 -9 266 71 39 43 61 81 71 124 11 47 -19 32 -39 -20 -10 -26 -39
-68 -64 -93 -119 -118 -295 -80 -293 62 1 78 79 148 165 148 43 0 47 14 12 46
-28 26 -33 62 -10 70 27 11 177 -44 253 -91 85 -52 95 -55 62 -20 l-23 25 17
82 c27 124 81 279 142 407 67 140 109 210 194 326 341 460 785 643 1139 469
87 -43 181 -132 224 -211 84 -157 61 -344 -57 -471 -82 -88 -141 -105 -450
-132 -221 -19 -420 -87 -570 -194 -124 -88 -234 -228 -281 -356 -9 -25 -20
-52 -25 -61 -7 -14 4 -25 55 -58 191 -124 312 -297 369 -530 26 -104 41 -140
115 -281 50 -94 71 -183 71 -303 0 -251 -128 -486 -360 -657 -252 -186 -626
-274 -1028 -242 -328 26 -556 111 -724 270 -204 192 -254 387 -193 746 88 520
188 758 388 927 69 58 173 116 229 128 29 6 33 11 31 37 -5 57 -71 170 -150
254 -95 101 -209 177 -458 305 -346 178 -483 286 -566 447 -140 274 1 593 294
664 76 18 144 17 229 -5z m3397 -1915 c-10 -10 -161 -116 -165 -116 -2 0 -4
16 -4 35 0 34 0 35 78 59 77 24 99 30 91 22z m27 -23 c-3 -10 -10 -37 -16 -60
l-11 -43 -49 0 c-26 0 -57 -3 -67 -7 -16 -6 -17 -5 -3 12 19 23 132 114 143
115 5 0 6 -8 3 -17z m-4620 -51 l50 -47 -11 -75 -10 -75 -31 80 c-18 44 -37
97 -44 118 -7 21 -14 36 -17 33 -4 -4 59 -195 82 -249 6 -16 -3 -13 -56 13
-35 18 -65 34 -67 35 -2 2 2 43 9 91 11 87 22 124 37 124 4 0 30 -22 58 -48z
m4414 -20 c0 -32 -8 -47 -54 -96 l-53 -58 -27 57 c-14 32 -26 59 -26 61 0 6
134 73 148 74 7 0 12 -14 12 -38z m-4259 -89 c47 -32 96 -66 109 -75 l23 -17
-21 -53 c-31 -77 -43 -131 -45 -198 -1 -33 -5 -60 -9 -60 -8 0 -95 144 -137
227 -19 38 -31 78 -31 101 0 54 11 132 19 132 4 0 45 -26 92 -57z m4124 -34
l16 -47 -44 -59 c-24 -32 -54 -76 -67 -97 l-23 -39 -17 69 c-9 38 -22 79 -28
92 -17 30 -6 48 65 111 66 59 69 58 98 -30z m304 64 c0 -25 -45 -138 -53 -136
-62 21 -125 34 -152 31 -19 -2 -34 -2 -34 0 0 2 21 28 46 57 49 56 60 61 147
64 39 1 47 -2 46 -16z m-4593 -151 c35 -21 53 -41 76 -87 17 -33 48 -90 69
-127 22 -36 39 -69 39 -71 0 -3 -26 6 -58 19 -32 13 -87 27 -122 31 l-64 8
-13 45 c-7 25 -16 85 -20 134 l-6 89 26 -7 c15 -3 47 -19 73 -34z m4499 14
c19 -8 35 -19 35 -24 0 -13 -59 -104 -87 -134 -22 -23 -29 -25 -56 -17 -42 12
-119 11 -153 -1 -15 -6 -29 -9 -31 -6 -5 5 32 64 90 144 l38 52 65 0 c35 0 80
-7 99 -14z m165 -3 c2 -2 -4 -19 -14 -38 -14 -26 -30 -38 -68 -51 -27 -9 -51
-14 -54 -11 -3 2 7 29 22 60 l27 55 41 -6 c23 -2 43 -7 46 -9z m-4224 -166
l36 -70 -17 -66 c-8 -36 -21 -113 -28 -171 l-12 -105 -87 120 -88 120 0 70 c0
74 18 165 46 236 l18 42 48 -52 c27 -30 65 -85 84 -124z m4334 168 c0 -3 -27
-18 -60 -35 -33 -17 -60 -28 -60 -25 0 3 7 19 15 35 14 26 21 30 60 30 25 0
45 -2 45 -5z m-652 -32 c18 -45 32 -106 32 -135 0 -27 -78 -187 -91 -188 -12
0 -21 137 -14 192 8 59 42 158 55 158 4 0 12 -12 18 -27z m-3198 -11 c0 -9 11
-40 24 -68 l24 -52 -37 -33 c-20 -19 -44 -45 -53 -59 l-17 -25 0 41 c-1 75 34
228 49 219 6 -4 10 -14 10 -23z m-36 7 c-3 -6 -16 -60 -28 -121 l-22 -109 -34
42 -34 42 20 34 c26 45 87 122 97 123 5 0 5 -5 1 -11z m3846 -18 c-14 -26 -23
-31 -39 -21 -10 6 -7 12 15 24 37 20 37 20 24 -3z m-40 -45 c-1 -6 -13 -25
-28 -43 l-28 -32 -52 26 -52 26 62 22 c64 22 98 22 98 1z m-976 -95 c15 -40
25 -75 23 -77 -2 -2 -20 4 -40 14 -24 10 -36 21 -32 30 3 8 5 39 5 70 0 68 8
61 44 -37z m66 25 l44 -46 -21 -27 c-11 -16 -24 -27 -28 -26 -6 1 -75 148 -75
160 0 10 40 -21 80 -61z m816 -3 l25 -16 -23 -24 c-13 -14 -49 -42 -80 -63
l-58 -38 -46 14 c-25 7 -50 11 -55 8 -24 -14 -3 12 64 78 71 73 73 74 110 66
21 -5 49 -16 63 -25z m-3574 -91 l47 -88 -30 -18 c-35 -21 -101 -102 -131
-160 -20 -39 -21 -40 -30 -17 -4 13 -11 69 -15 125 -5 84 -3 107 11 134 18 34
84 112 95 112 3 0 27 -40 53 -88z m3376 64 c6 -7 -8 -19 -88 -75 -65 -45 -200
-115 -208 -107 -10 11 69 156 94 172 42 28 177 35 202 10z m-3592 -57 c30 -42
32 -49 37 -172 l6 -127 -80 72 c-43 40 -79 78 -79 83 0 16 37 138 51 168 16
35 26 31 65 -24z m3071 -31 l32 -51 -29 -34 c-16 -18 -33 -45 -36 -58 -3 -14
-9 -25 -13 -25 -3 0 -16 34 -29 76 l-23 76 26 34 c14 19 29 34 33 34 4 0 22
-23 39 -52z m-3842 17 c33 -9 85 -27 117 -41 49 -23 63 -36 104 -98 26 -39 67
-97 91 -129 24 -33 43 -61 41 -62 -2 -2 -39 9 -83 24 -44 16 -100 32 -125 36
-61 9 -83 25 -136 98 -40 54 -104 166 -104 182 0 9 34 5 95 -10z m3663 1 c15
-8 34 -22 43 -32 16 -19 49 -125 49 -158 0 -16 -2 -16 -25 2 -14 11 -48 26
-75 33 -45 11 -50 16 -50 40 0 33 20 129 26 129 3 0 17 -6 32 -14z m-3152
-271 c30 -136 53 -250 50 -252 -2 -3 -38 38 -80 90 l-76 94 0 79 c0 94 28 260
42 246 5 -5 34 -121 64 -257z m3874 225 c11 -7 8 -11 -15 -20 -44 -17 -229
-58 -235 -52 -3 2 0 7 5 9 6 2 37 19 70 37 62 35 142 47 175 26z m-3308 -128
c15 -39 31 -98 34 -131 l7 -59 -51 -51 c-33 -33 -66 -81 -91 -132 l-39 -81
-30 93 c-16 52 -35 119 -42 150 -12 55 -12 58 21 120 34 65 132 173 152 166 5
-1 23 -35 39 -75z m2813 34 c14 -71 -29 -355 -46 -308 -8 21 12 135 31 174 11
22 11 22 -5 3 -9 -11 -19 -32 -22 -48 -10 -48 -20 -38 -33 33 -13 67 -12 70
14 124 31 64 52 71 61 22z m-179 -51 c22 -13 45 -30 51 -37 9 -12 36 -129 30
-133 -1 -1 -35 0 -76 3 l-73 4 -19 42 c-10 24 -21 69 -25 101 l-7 58 39 -7
c21 -4 57 -18 80 -31z m-2943 -82 c57 -58 57 -60 86 -178 16 -66 34 -133 41
-149 6 -16 8 -31 6 -33 -3 -3 -24 8 -48 25 -24 16 -62 39 -86 51 -35 18 -48
33 -66 74 -38 87 -68 252 -52 292 5 15 9 14 33 -4 16 -10 54 -46 86 -78z
m3727 53 c0 -4 -89 -56 -96 -56 -2 0 -4 14 -4 30 0 29 1 30 50 30 28 0 50 -2
50 -4z m29 -33 c-33 -55 -33 -55 -80 -46 l-43 8 60 37 c78 48 92 48 63 1z
m-140 10 c-1 -35 -15 -52 -84 -102 l-70 -51 -6 32 c-4 18 -9 49 -12 70 l-5 36
56 15 c82 22 122 21 121 0z m-179 -109 c0 -46 -4 -65 -17 -76 -15 -12 -178
-98 -186 -98 -2 0 2 32 7 71 12 78 30 99 131 159 59 35 65 30 65 -56z m-3999
52 c149 -44 169 -56 249 -157 39 -50 69 -93 67 -96 -7 -6 -96 40 -190 98 -71
45 -227 164 -227 175 0 8 17 4 101 -20z m4253 -16 c24 -9 25 -10 9 -48 l-15
-39 -86 -7 c-48 -3 -100 -9 -116 -12 -42 -10 -27 8 56 66 72 51 103 59 152 40z
m-678 -75 c16 -11 23 -28 28 -72 4 -32 10 -67 13 -78 8 -26 -49 23 -118 102
-36 42 -46 59 -37 65 17 11 87 0 114 -17z m-2681 -123 c-10 -43 -29 -107 -42
-144 -24 -65 -27 -68 -59 -68 -30 0 -34 3 -40 35 -12 64 30 164 104 246 42 48
47 51 50 30 2 -13 -4 -57 -13 -99z m2888 41 c-11 -69 -17 -79 -90 -158 -40
-42 -73 -75 -73 -72 0 26 145 267 161 267 4 0 5 -17 2 -37z m357 27 c0 -16
-55 -121 -83 -158 -22 -29 -44 -40 -151 -76 -69 -23 -126 -42 -126 -41 0 0 20
40 45 90 25 49 45 95 45 103 0 16 93 58 169 77 69 17 101 18 101 5z m190 -1
c27 -6 50 -14 50 -17 0 -4 -17 -29 -38 -56 l-37 -50 -115 -27 c-63 -15 -116
-26 -118 -25 -1 2 13 29 33 61 19 32 39 73 45 91 11 33 12 34 70 34 33 0 82
-5 110 -11z m139 -45 c34 -15 61 -30 61 -33 0 -4 -40 -13 -90 -22 -49 -8 -90
-14 -90 -12 0 10 46 93 51 93 4 0 35 -12 68 -26z m-629 -70 c-14 -35 -89 -161
-103 -172 -29 -22 -127 -60 -127 -49 0 37 197 247 232 247 4 0 3 -12 -2 -26z
m-3997 -46 c19 -35 33 -64 32 -66 -2 -2 -45 17 -96 42 -105 51 -101 47 16 -21
l79 -46 -49 -13 c-28 -7 -50 -12 -50 -11 -2 8 -65 89 -89 115 -17 19 -26 32
-21 31 6 -1 17 1 25 4 24 10 83 25 102 26 10 1 29 -22 51 -61z m122 28 c50
-23 52 -25 88 -116 21 -51 36 -95 33 -97 -2 -2 -41 17 -87 44 -83 48 -119 85
-161 167 l-20 39 48 -7 c26 -3 71 -17 99 -30z m4555 31 c0 -2 -18 -18 -41 -36
l-41 -33 -34 18 c-19 10 -34 21 -34 25 0 3 28 11 63 16 78 13 87 14 87 10z
m-3884 -73 c46 -30 84 -58 84 -62 0 -4 3 -17 6 -28 4 -16 0 -23 -17 -27 -28
-7 -58 18 -125 105 -68 87 -62 89 52 12z m3742 16 c17 -11 32 -23 32 -28 0 -9
-78 -68 -127 -97 l-33 -19 -27 26 c-16 14 -50 40 -77 57 -31 19 -44 32 -35 35
46 17 169 44 199 45 19 1 50 -8 68 -19z m-3448 -128 c0 -10 -9 -12 -32 -7 -18
4 -34 8 -35 9 -2 2 7 31 19 67 l22 64 12 -60 c7 -33 13 -66 14 -73z m-797 25
c19 -23 47 -62 63 -86 27 -41 27 -44 10 -57 -16 -11 -23 -11 -48 4 -16 9 -33
22 -38 27 -8 10 -80 181 -80 191 0 12 62 -40 93 -79z m3977 38 c27 -14 66 -39
86 -57 l36 -32 -48 -24 c-58 -30 -150 -62 -176 -62 -10 0 -42 18 -71 40 -29
21 -70 47 -92 56 -36 15 -37 17 -20 27 19 10 211 75 228 76 4 1 30 -10 57 -24z
m-4124 -97 c46 -29 84 -56 84 -59 0 -3 -24 -11 -54 -17 -51 -10 -58 -9 -132
23 -106 46 -130 77 -71 94 63 18 87 12 173 -41z m3254 22 c0 -5 -4 -10 -10
-10 -5 0 -10 5 -10 10 0 6 5 10 10 10 6 0 10 -4 10 -10z m606 -30 c137 -70
132 -94 -16 -86 -89 5 -205 28 -223 45 -8 8 135 69 164 70 9 1 42 -13 75 -29z
m-2934 -2 c26 -8 40 -19 49 -40 21 -52 88 -148 142 -205 94 -99 225 -180 379
-232 l78 -27 -45 -59 c-25 -33 -62 -95 -82 -137 -21 -42 -44 -77 -50 -77 -49
-3 -397 155 -568 257 -257 154 -327 261 -261 396 60 122 197 170 358 124z
m3618 -98 c-7 -55 -16 -100 -21 -100 -5 0 -9 8 -9 18 0 9 -12 40 -25 67 l-25
50 42 37 c24 20 45 34 47 32 2 -2 -1 -49 -9 -104z m-1118 80 c88 -25 178 -135
178 -217 0 -115 -127 -227 -431 -378 -116 -57 -379 -165 -404 -165 -2 0 -14
19 -26 43 -32 63 -106 170 -139 202 -17 16 -30 32 -30 36 0 4 24 15 53 25 215
71 427 224 545 394 22 31 48 57 62 61 39 11 151 10 192 -1z m-3711 -26 c8 -9
49 -43 92 -76 43 -33 77 -61 75 -63 -2 -1 -50 -5 -108 -9 l-105 -6 -72 57
c-81 63 -81 70 -8 97 55 20 109 20 126 0z m100 0 c30 -9 84 -31 120 -49 62
-32 66 -35 61 -64 -4 -27 -8 -31 -37 -31 -25 0 -56 18 -134 76 -55 41 -101 77
-101 80 0 8 38 4 91 -12z m4778 -104 c1 -8 -8 -21 -19 -28 -20 -12 -21 -11
-15 40 9 77 17 89 26 43 4 -22 8 -47 8 -55z m-4442 56 c23 -20 26 -27 15 -37
-10 -11 -18 -11 -45 0 -17 7 -51 16 -75 21 -64 11 -66 20 -7 33 51 11 85 6
112 -17z m4324 -31 c37 -84 40 -140 12 -235 -23 -81 -43 -122 -43 -89 0 23
-58 138 -101 201 -21 32 -39 61 -39 65 0 10 129 103 142 103 5 0 18 -20 29
-45z m-4847 -77 c-3 -4 -18 -8 -33 -8 -15 0 -77 -9 -136 -20 -60 -10 -110 -18
-112 -16 -2 1 33 37 76 80 l79 77 66 -52 c36 -29 63 -56 60 -61z m690 92 c25
-12 53 -38 73 -67 l33 -48 -25 -66 c-38 -105 -57 -215 -58 -336 0 -62 -2 -113
-3 -113 -5 0 -45 94 -71 168 -14 40 -27 71 -29 69 -7 -6 19 -85 73 -221 30
-76 52 -140 50 -142 -2 -2 -25 32 -51 76 -26 44 -79 123 -117 176 -97 133
-126 187 -149 279 -23 92 -27 190 -7 198 8 3 33 -3 57 -14 56 -25 67 -24 100
11 23 25 58 46 79 49 3 1 23 -8 45 -19z m196 -112 c0 -24 11 -65 24 -93 21
-46 96 -127 140 -152 17 -9 18 -14 6 -64 -20 -86 -78 -295 -111 -401 -31 -101
-42 -113 -75 -81 -24 24 -15 150 26 366 17 92 30 173 28 179 -2 6 -23 -85 -47
-203 -30 -153 -42 -235 -40 -284 2 -46 -1 -70 -9 -73 -15 -5 -27 25 -59 148
-35 131 -38 342 -6 471 21 84 62 189 84 216 23 27 39 15 39 -29z m3870 -133
c16 -33 35 -81 42 -106 l12 -47 -67 -65 c-36 -36 -68 -62 -71 -59 -3 3 -6 34
-6 69 0 63 -11 78 -36 53 -13 -13 -88 95 -78 111 3 5 1 16 -6 24 -15 19 19 87
73 142 l41 43 33 -53 c18 -28 46 -79 63 -112z m222 52 l3 -99 -64 -29 c-53
-24 -63 -26 -58 -11 3 9 17 60 32 112 26 90 60 149 76 133 4 -5 9 -52 11 -106z
m-4882 75 c0 -4 -5 -13 -11 -19 -5 -5 -10 -29 -11 -53 l0 -43 -65 6 c-35 2
-67 8 -71 12 -10 10 78 84 113 94 40 12 45 12 45 3z m142 -4 c-9 -9 -15 -9
-24 0 -9 9 -7 12 12 12 19 0 21 -3 12 -12z m132 -4 c12 -32 5 -43 -33 -55 -36
-11 -41 -10 -67 15 -28 25 -28 26 -9 40 27 21 101 21 109 0z m-365 3 c-2 -2
-24 -22 -49 -45 l-46 -41 -104 29 c-58 16 -98 29 -90 30 8 1 60 7 115 14 97
13 183 19 174 13z m189 -21 c56 -29 259 -255 379 -421 85 -118 213 -337 213
-365 0 -8 -336 276 -487 413 -13 11 -23 18 -23 15 0 -4 69 -70 153 -149 318
-298 320 -300 301 -320 -10 -11 -20 -19 -24 -19 -13 0 -315 172 -400 228 -166
109 -336 308 -347 406 -7 58 10 71 66 51 23 -8 48 -12 56 -9 16 7 17 12 19 95
2 84 31 107 94 75z m5273 -71 c-41 -25 -91 -60 -113 -77 -21 -17 -40 -29 -42
-27 -2 2 -6 25 -8 51 l-5 47 101 25 c142 34 150 32 67 -19z m88 -7 c-10 -29
-18 -65 -19 -80 0 -26 0 -26 -92 -30 -51 -2 -94 -3 -96 -2 -4 3 211 164 219
164 3 0 -2 -24 -12 -52z m-5155 -32 c9 -27 16 -52 16 -55 0 -3 -20 15 -45 39
-25 24 -45 47 -45 51 0 10 44 28 51 20 4 -3 14 -28 23 -55z m3757 37 c-18 -34
-67 -73 -98 -79 -28 -5 -33 -3 -47 24 -9 17 -16 33 -16 36 0 4 29 11 125 30
42 8 46 7 36 -11z m168 1 c11 -10 -48 -43 -76 -44 -28 0 -33 4 -33 23 0 13 3
27 6 30 6 6 94 -2 103 -9z m-132 -226 c-6 -240 -16 -344 -49 -508 -23 -118
-28 -132 -46 -122 -9 6 -9 23 3 78 8 38 14 85 14 104 0 19 -9 -11 -19 -68 -10
-57 -21 -106 -24 -109 -13 -13 -30 18 -37 69 -25 174 -2 406 57 570 26 74 92
208 102 208 3 0 2 -100 -1 -222z m201 211 c44 -15 30 -29 -29 -29 -50 0 -59 6
-37 28 15 15 26 15 66 1z m890 -57 l3 -53 -70 -65 c-38 -35 -93 -94 -122 -130
l-54 -65 -11 64 c-7 36 -23 92 -37 126 -26 64 -26 66 23 92 43 22 234 88 250
86 11 -2 16 -17 18 -55z m-1260 -59 l40 -88 -23 -95 c-13 -52 -26 -117 -30
-143 -4 -27 -9 -47 -11 -44 -3 3 -9 36 -14 74 l-9 68 4 -80 c3 -44 7 -91 11
-105 3 -14 -17 19 -43 73 l-49 99 12 101 c20 160 38 227 64 227 3 0 25 -39 48
-87z m366 68 c3 -5 -1 -14 -9 -21 -12 -10 -18 -10 -30 0 -8 7 -15 16 -15 21 0
12 47 12 54 0z m66 -166 c1 -194 -20 -266 -107 -358 -35 -37 -84 -99 -110
-137 -25 -39 -48 -69 -50 -67 -1 2 21 58 51 125 30 67 51 122 48 122 -4 0 -32
-56 -62 -125 -30 -68 -56 -123 -57 -121 -5 4 35 301 48 356 20 91 85 210 180
330 l43 55 8 -35 c4 -19 8 -84 8 -145z m-121 141 l23 -24 -27 -41 c-37 -54
-61 -61 -91 -25 -16 20 -23 42 -24 72 l0 42 48 0 c38 0 53 -5 71 -24z m151 14
c0 -5 -4 -10 -10 -10 -5 0 -10 5 -10 10 0 6 5 10 10 10 6 0 10 -4 10 -10z
m-385 -57 c-8 -19 -15 -37 -15 -39 0 -14 -19 0 -28 21 -17 37 -15 42 16 53 38
13 44 6 27 -35z m463 -15 l32 -53 -32 -27 c-18 -15 -36 -28 -39 -28 -11 0 -17
63 -12 113 3 26 8 47 12 47 4 0 21 -24 39 -52z m-678 2 c-24 -15 -36 -11 -14
4 10 8 21 12 24 10 2 -3 -2 -9 -10 -14z m1640 -44 c0 -34 3 -90 6 -122 l6 -59
-158 -1 c-158 0 -195 -6 -298 -50 -19 -7 -19 -6 1 22 40 55 174 204 200 221
44 29 126 52 186 53 l57 0 0 -64z m-553 -28 c13 -31 27 -89 33 -128 l10 -72
-39 -62 c-21 -34 -52 -89 -70 -124 -29 -58 -33 -62 -66 -62 -19 0 -35 2 -35 6
0 3 13 19 29 36 16 17 39 49 52 71 l22 40 -96 -7 c-74 -6 -96 -4 -100 6 -5 13
41 104 75 147 25 32 10 47 -31 33 -47 -17 -39 4 24 64 62 59 144 116 159 111
6 -2 21 -29 33 -59z m-1074 -20 c-3 -40 -9 -76 -12 -80 -4 -5 -31 16 -60 44
l-52 53 58 27 c32 14 61 27 65 27 4 1 4 -32 1 -71z m-2731 21 l69 -40 -66 -72
c-37 -40 -87 -103 -112 -142 -59 -89 -69 -100 -48 -50 19 46 95 181 137 243
17 24 28 46 25 48 -6 6 -106 -144 -136 -203 -12 -24 -23 -43 -25 -43 -3 0 4
30 15 68 11 37 29 104 41 150 11 45 23 82 26 82 3 0 37 -18 74 -41z m1777 -14
c121 -131 204 -316 253 -560 18 -90 22 -145 23 -300 0 -212 -13 -283 -76 -408
-28 -54 -141 -187 -159 -187 -4 0 -2 28 6 63 20 96 28 280 15 391 -44 388
-169 630 -379 733 -73 37 -80 38 -182 38 -100 0 -109 -2 -175 -34 -145 -71
-258 -221 -305 -406 -58 -228 -46 -598 25 -736 20 -37 12 -34 -57 24 -50 41
-119 126 -157 192 -162 277 -93 811 148 1153 30 42 59 72 69 72 9 0 58 -7 107
-16 196 -33 524 -28 700 11 93 20 99 19 144 -30z m1297 6 c-13 -20 -26 -11
-26 16 0 25 1 26 16 11 9 -9 13 -21 10 -27z m404 -23 c-1 -58 -16 -132 -28
-136 -5 -1 -35 -18 -66 -37 -31 -18 -56 -31 -56 -28 0 3 13 21 30 39 27 32 65
94 57 94 -2 0 -18 -21 -35 -47 -38 -60 -97 -118 -89 -88 3 11 9 38 12 60 3 22
8 50 11 62 4 20 133 121 157 122 4 1 7 -18 7 -41z m-838 -52 c90 -107 162
-261 187 -396 30 -171 22 -179 -32 -30 -40 109 -75 188 -89 196 -5 3 1 -14 13
-37 26 -52 99 -253 99 -274 0 -24 -16 -17 -29 13 -21 46 -118 186 -164 238
-44 49 -102 164 -131 262 l-15 51 42 25 c23 14 47 24 52 22 6 -1 36 -33 67
-70z m-3850 52 c8 -7 29 -33 46 -58 65 -98 191 -207 343 -300 46 -28 89 -56
94 -61 32 -33 -277 105 -385 172 -33 20 -34 20 -10 0 45 -36 192 -120 262
-148 37 -16 68 -31 68 -34 0 -3 -30 0 -67 7 -38 8 -129 17 -203 20 -155 8
-184 18 -307 110 -107 80 -111 130 -11 136 69 4 81 23 50 81 -25 48 -27 58
-10 75 16 16 110 15 130 0z m4286 -49 l-23 -44 -3 30 c-3 21 3 34 19 47 31 26
33 17 7 -33z m-2903 -16 c60 -32 67 -38 51 -47 -40 -24 -174 -121 -237 -172
-69 -56 -139 -127 -176 -179 -36 -51 -39 -18 -4 53 49 100 130 217 211 305 39
42 75 77 79 77 4 0 38 -17 76 -37z m2290 7 c3 -5 1 -10 -4 -10 -6 0 -11 5 -11
10 0 6 2 10 4 10 3 0 8 -4 11 -10z m9 -42 c1 -1 18 -37 38 -79 l35 -75 -94 70
c-92 69 -94 71 -74 87 16 13 29 15 57 9 19 -5 37 -10 38 -12z m-2119 -46 c50
-22 99 -42 110 -46 18 -7 17 -11 -20 -43 -60 -52 -168 -120 -274 -174 -109
-54 -307 -139 -327 -139 -7 0 -16 9 -19 20 -8 25 36 82 129 170 92 87 291 249
306 250 3 0 46 -17 95 -38z m2041 -27 c144 -96 289 -257 365 -407 23 -46 26
-58 15 -67 -11 -9 -23 3 -57 55 -24 37 -77 101 -118 143 -79 81 -77 75 11 -30
54 -64 138 -182 138 -193 0 -28 -126 51 -213 133 -38 36 -89 93 -113 127 -43
60 -144 257 -144 282 0 24 34 11 116 -43z m1184 50 c0 -12 -125 -225 -165
-281 -72 -100 -205 -213 -322 -273 -40 -20 -43 -20 -52 -3 -8 14 4 30 72 96
90 86 79 83 -24 -6 -65 -57 -97 -73 -85 -43 20 54 143 214 230 300 103 102
169 148 273 191 60 24 73 28 73 19z m-1320 -25 c0 -5 -18 -24 -40 -42 -35 -27
-48 -32 -86 -29 l-45 3 15 -35 c8 -20 11 -38 8 -42 -4 -4 0 -12 8 -18 19 -15
53 -67 48 -73 -2 -2 -34 -1 -71 3 l-66 6 -21 61 c-11 34 -21 65 -22 69 -2 5
56 30 127 57 145 54 145 54 145 40z m2115 -32 c3 -24 5 -88 3 -143 l-3 -100
-150 -6 c-155 -7 -207 -15 -334 -49 -40 -12 -76 -18 -79 -15 -3 3 4 15 16 28
33 36 28 47 -23 47 -25 0 -45 3 -45 6 0 11 61 116 88 153 30 41 144 97 222
110 30 5 110 9 177 10 l122 1 6 -42z m-2079 -76 c-3 -3 -18 0 -32 7 -26 11
-26 12 -8 32 18 20 18 20 32 -6 7 -15 11 -29 8 -33z m-1718 -40 c-11 -31 -30
-97 -43 -147 l-23 -90 -44 5 c-23 3 -125 5 -225 5 -100 0 -176 3 -170 7 19 10
249 76 324 92 55 12 61 15 31 15 -40 1 -234 -34 -275 -50 -45 -17 -36 -1 11
20 76 33 227 126 291 178 l60 50 42 -14 41 -14 -20 -57z m866 15 c182 -90 303
-311 352 -639 18 -125 14 -354 -9 -483 l-12 -70 -60 -32 c-209 -112 -501 -107
-751 13 -85 40 -110 75 -146 200 -20 70 -22 102 -23 284 0 219 9 293 51 411
36 100 71 157 139 225 97 98 186 136 307 131 65 -3 89 -9 152 -40z m827 7 c33
-15 59 -30 59 -34 0 -4 18 -35 40 -69 22 -34 40 -63 40 -65 0 -11 -181 31
-210 49 -10 6 -80 138 -80 151 0 13 94 -7 151 -32z m1429 -23 c0 -11 -70 -101
-91 -117 -8 -6 -44 -14 -81 -18 -37 -4 -76 -9 -85 -12 -10 -3 -5 5 11 18 16
13 43 36 60 51 l31 29 -39 -26 c-22 -14 -42 -24 -44 -22 -2 2 9 22 23 45 24
35 33 41 74 46 25 4 53 8 61 9 33 8 80 5 80 -3z m-1472 -132 c128 -29 229 -75
288 -130 53 -49 145 -112 189 -129 14 -5 25 -16 25 -25 0 -20 -9 -19 -34 4
-28 26 -156 96 -203 112 -21 6 -55 20 -75 31 -21 10 -38 16 -38 13 0 -2 14
-12 31 -20 48 -25 28 -28 -26 -4 -41 18 -61 21 -131 16 -81 -5 -84 -4 -131 28
-61 41 -69 51 -77 99 l-7 38 53 -7 c29 -3 90 -15 136 -26z m-3133 -9 c145 -21
425 -100 425 -120 0 -4 -69 -11 -152 -15 -304 -15 -329 -22 -85 -23 219 -2
227 -3 227 -22 0 -22 -14 -29 -170 -83 -220 -76 -437 -117 -631 -120 -93 -2
-110 1 -128 17 -30 27 -26 58 14 106 19 23 35 52 35 65 0 12 -15 45 -33 71
-46 67 -49 79 -28 105 14 17 33 24 87 30 84 9 343 3 439 -11z m4715 -9 c0 -15
-105 -108 -165 -146 -109 -70 -263 -121 -470 -154 -38 -7 -78 -14 -87 -17 -14
-4 -18 0 -18 19 0 22 5 25 49 30 27 3 71 17 98 31 59 31 55 32 -15 6 -86 -33
-89 -23 -10 29 41 26 105 77 142 112 l69 64 121 16 c133 18 286 24 286 10z
m546 -48 c-35 -101 -87 -171 -177 -243 -45 -35 -47 -36 -130 -34 -83 2 -84 2
-125 42 -23 21 -56 42 -73 45 -35 7 -89 -1 -97 -14 -7 -12 -37 -11 -68 1 -25
9 -25 10 -12 55 8 25 25 54 38 65 31 25 180 74 305 99 105 22 332 42 346 31 4
-4 1 -25 -7 -47z m-4602 -2 c68 -42 91 -144 48 -212 -29 -48 -50 -58 -126 -60
-61 -2 -69 0 -97 26 -122 118 32 334 175 246z m2386 -81 c0 -10 -48 -22 -60
-15 -6 4 -10 19 -10 35 l0 29 35 -20 c19 -12 35 -25 35 -29z m-1688 25 c26 -3
49 -9 51 -13 2 -4 1 -21 -2 -38 l-6 -32 -65 39 c-99 59 -100 59 -60 54 19 -2
56 -7 82 -10z m-403 -21 c-25 -25 -28 -25 -113 -18 -47 4 -84 10 -81 13 6 5
145 26 200 30 18 1 17 -1 -6 -25z m305 -22 c36 -17 81 -42 100 -57 l33 -25 6
-138 c7 -164 24 -239 79 -352 35 -69 60 -103 140 -184 107 -109 108 -111 36
-141 l-38 -15 0 30 c0 65 -57 137 -139 180 -44 22 -148 50 -186 50 -22 0 -115
54 -115 67 0 2 13 21 29 44 63 87 79 216 34 277 -29 40 -82 72 -117 72 -48 -1
-108 -33 -148 -79 -19 -22 -37 -41 -40 -41 -14 0 -30 96 -26 154 5 78 40 137
103 174 58 33 157 27 249 -16z m2025 -17 c43 -22 87 -86 100 -145 34 -156 -90
-337 -336 -493 -46 -29 -83 -57 -83 -64 0 -6 23 -16 50 -23 48 -12 68 -30 33
-30 -31 0 -92 -52 -114 -97 -16 -34 -20 -55 -16 -88 l6 -44 -37 6 c-44 7 -204
52 -212 60 -3 3 6 13 20 22 177 117 274 286 300 520 10 94 7 276 -7 324 -3 13
7 22 44 38 98 42 189 47 252 14z m-2403 -15 c22 0 23 -2 12 -26 -12 -25 -15
-26 -72 -20 -33 3 -61 8 -64 10 -2 3 -1 14 3 26 6 20 12 22 52 16 25 -3 56 -6
69 -6z m2675 -70 c104 -67 90 -87 -40 -56 l-95 22 -28 54 c-15 30 -28 56 -28
57 0 9 153 -53 191 -77z m294 51 c60 -28 87 -62 92 -118 6 -62 -28 -130 -78
-156 -41 -22 -126 -18 -166 8 -36 24 -56 80 -49 138 6 56 47 133 73 140 40 10
90 6 128 -12z m681 -7 c-3 -9 -6 -18 -6 -20 0 -2 -11 -4 -25 -4 -31 0 -32 13
-2 28 31 15 40 14 33 -4z m-1 -54 c44 -12 81 -23 82 -24 1 -1 -4 -20 -12 -41
-8 -22 -14 -57 -15 -77 0 -33 -4 -38 -27 -44 -16 -3 -42 -10 -60 -14 -24 -6
-43 -2 -84 17 -77 37 -184 72 -243 79 -28 3 -58 8 -66 11 -21 8 53 22 125 23
33 0 67 5 75 11 10 7 -17 8 -90 4 l-105 -5 110 24 c61 13 133 33 160 44 28 11
55 19 60 17 6 -2 47 -13 90 -25z m-4100 -11 c8 -23 13 -16 -125 -169 -52 -58
-112 -115 -135 -127 -50 -26 -126 -106 -154 -162 -23 -43 -41 -54 -41 -22 0
10 -16 51 -36 91 -31 62 -35 75 -23 84 8 6 51 39 95 72 125 96 376 253 406
254 4 0 10 -9 13 -21z m382 -9 c49 -28 51 -31 58 -82 4 -29 15 -74 25 -101 10
-26 15 -49 10 -52 -7 -5 -72 66 -152 165 -36 44 -36 46 -20 73 9 15 19 27 22
27 3 0 28 -13 57 -30z m3981 0 c70 -43 89 -148 50 -278 l-21 -73 -38 3 c-37 2
-39 3 -45 46 -4 24 -4 72 -1 106 l6 61 -17 -30 c-11 -21 -17 -55 -18 -109 0
-64 -4 -80 -18 -88 -23 -13 -30 -3 -56 81 -43 135 -35 228 21 275 38 32 90 34
137 6z m-4520 -15 c-2 -3 -40 -26 -85 -53 -44 -26 -124 -82 -177 -123 -150
-113 -133 -105 -159 -81 -27 26 -88 52 -119 52 -13 0 -36 -7 -53 -16 -36 -18
-90 -11 -104 14 -22 41 47 102 114 102 22 0 83 7 135 15 52 8 113 17 135 20
l40 6 -50 -26 c-77 -41 -86 -57 -10 -19 37 19 113 47 168 64 56 17 111 35 122
40 22 9 51 13 43 5z m3257 -29 c86 -26 85 -30 -15 -46 -90 -14 -87 -15 -92 30
-4 48 -3 48 107 16z m-3046 -10 c8 -10 7 -22 -4 -49 -8 -20 -15 -44 -15 -54 0
-9 -23 -51 -50 -94 l-51 -77 -29 29 c-19 19 -39 29 -59 29 -17 0 -31 3 -31 7
0 9 212 223 221 223 4 0 12 -6 18 -14z m3586 9 c-29 -12 -95 -22 -95 -15 0 5
8 11 18 13 21 6 91 7 77 2z m-3351 -32 c11 -16 54 -65 95 -111 l74 -84 -17
-34 c-9 -19 -16 -41 -16 -49 0 -34 -17 -11 -29 38 -20 80 -66 170 -111 216
-22 22 -40 43 -40 46 0 14 25 2 44 -22z m-91 8 c41 -16 98 -80 128 -145 25
-53 74 -215 67 -222 -2 -1 -22 -5 -45 -9 -40 -6 -42 -5 -59 27 -9 18 -29 69
-45 113 -15 44 -28 73 -28 65 -1 -23 37 -158 54 -191 14 -26 13 -29 -7 -43
-12 -9 -26 -16 -30 -16 -14 0 -73 70 -111 133 -74 120 -83 213 -27 269 30 29
61 35 103 19z m4357 -12 c-19 -13 -88 -49 -93 -49 -3 0 -7 14 -9 30 l-5 30 61
0 c45 0 57 -3 46 -11z m-3811 -28 c73 -51 85 -133 36 -233 -30 -62 -117 -155
-171 -184 -33 -18 -34 -18 -55 2 l-20 21 32 34 c39 41 69 103 69 144 0 27 -2
25 -24 -21 -13 -29 -40 -70 -60 -92 l-37 -40 -42 16 c-23 9 -43 16 -44 17 -2
1 4 26 13 56 24 81 89 200 136 247 61 62 112 72 167 33z m2446 -9 c-6 -5 -45
-16 -88 -26 -43 -10 -76 -20 -74 -22 3 -3 35 2 71 11 37 8 76 15 87 15 31 0
22 -18 -13 -25 -38 -8 -185 -79 -209 -101 -28 -26 -30 -15 -4 36 15 29 33 50
43 51 16 1 16 2 0 6 -19 5 -22 12 -12 37 4 10 19 16 43 17 20 0 61 6 91 13 53
12 85 5 65 -12z m621 -3 c43 -11 87 -25 98 -32 19 -10 17 -12 -23 -17 -76 -11
-105 -86 -61 -157 36 -60 -7 -39 -94 45 -45 43 -107 93 -138 112 -115 70 -45
79 122 17 50 -19 90 -33 90 -31 0 8 -70 39 -145 66 l-80 29 77 -6 c42 -3 112
-15 154 -26z m927 -31 c53 -28 62 -86 22 -153 -38 -65 -140 -131 -232 -150
-28 -6 -34 -3 -47 24 l-16 30 63 44 c34 25 77 52 95 61 17 9 32 18 32 21 0 13
-141 -51 -191 -86 -16 -11 -30 -15 -39 -9 -30 19 110 184 183 215 39 17 101
19 130 3z m-1135 -52 c104 -82 272 -271 272 -305 0 -4 -22 -14 -49 -24 -29
-10 -62 -32 -80 -52 l-31 -35 -40 36 c-82 74 -162 198 -201 310 -17 51 -17 53
2 70 10 9 20 15 22 13 2 -2 43 -53 92 -114 49 -60 90 -112 92 -114 2 -2 5 -2
7 0 2 2 -38 57 -90 122 -84 107 -104 147 -72 147 5 0 39 -24 76 -54z m-399
-13 c-14 -16 -58 -66 -98 -113 -71 -83 -70 -82 30 22 96 100 105 106 123 93
18 -14 17 -18 -29 -97 -87 -151 -228 -320 -254 -304 -32 20 -128 -30 -143 -74
-4 -11 -15 -6 -47 23 -23 21 -53 43 -67 49 -13 6 -24 17 -24 24 0 21 114 167
171 218 72 66 169 127 265 170 87 39 114 34 73 -11z m819 -9 c39 -20 101 -64
138 -98 56 -51 64 -63 52 -73 -11 -10 -22 -7 -51 13 -38 26 -166 78 -174 71
-2 -2 18 -13 44 -24 27 -11 72 -39 101 -62 44 -35 52 -46 46 -64 -3 -12 -7
-23 -8 -24 -6 -7 -130 34 -180 59 -145 73 -200 155 -144 215 33 35 90 31 176
-13z m136 24 c3 -7 7 -26 10 -41 6 -25 4 -27 -11 -18 -41 22 -56 39 -50 55 7
19 46 22 51 4z m-834 -60 c-1 -64 -30 -234 -55 -319 -31 -108 -72 -201 -132
-301 l-46 -76 -33 21 c-19 12 -34 25 -34 28 0 4 14 12 31 19 40 17 79 69 79
108 0 44 -14 74 -50 110 -27 27 -31 37 -25 65 4 17 22 48 40 67 18 19 56 68
84 109 56 82 61 82 31 2 -12 -29 -19 -55 -17 -57 2 -3 26 54 52 126 48 130 75
166 75 98z m131 -33 c10 -33 35 -87 56 -120 l38 -60 -1 -160 c0 -151 -20 -308
-44 -354 -11 -20 -91 121 -129 223 -48 133 -64 234 -52 316 6 38 11 101 11
140 0 68 1 71 23 68 21 -3 23 -10 34 -128 l11 -125 -5 122 c-2 67 -2 127 2
133 15 25 38 2 56 -55z m-4095 29 c76 -36 149 -146 161 -243 5 -43 3 -49 -16
-54 -18 -4 -26 5 -55 66 -19 40 -51 88 -71 107 l-37 35 31 -50 c45 -73 75
-163 60 -181 -17 -21 -22 -18 -78 32 -98 88 -154 250 -99 288 29 20 61 20 104
0z m717 -63 c15 -33 27 -71 27 -84 l0 -25 -52 16 c-29 9 -55 17 -57 19 -5 3
42 133 48 133 3 0 18 -27 34 -59z m-196 17 c22 -18 14 -67 -16 -111 -35 -52
-131 -144 -189 -182 -39 -26 -44 -27 -59 -12 -14 14 -13 19 15 55 17 21 50 56
72 76 22 20 40 38 40 41 0 12 -88 -56 -124 -95 -24 -26 -43 -39 -52 -36 -25
10 60 158 123 216 70 64 148 83 190 48z m63 -59 c-7 -11 -14 -18 -17 -15 -3 3
0 12 7 21 18 21 23 19 10 -6z m30 -9 c-6 -12 -14 -19 -17 -17 -2 3 1 15 7 27
6 12 14 19 17 17 2 -3 -1 -15 -7 -27z m4451 -36 c16 -15 33 -43 38 -61 31
-111 -103 -205 -199 -140 -74 49 -87 123 -33 188 34 40 58 50 116 45 36 -2 55
-10 78 -32z m-472 -17 c48 -24 98 -47 111 -52 21 -7 16 -9 -28 -12 -50 -4 -57
-1 -107 37 -55 43 -83 70 -70 70 3 0 46 -19 94 -43z m-3959 2 c78 -21 160 -53
197 -77 19 -12 20 -17 10 -39 -12 -27 -8 -27 -122 6 -85 26 -132 27 -55 2 30
-10 78 -28 107 -40 48 -21 52 -26 50 -55 -1 -17 -6 -34 -12 -38 -21 -16 -59
-7 -91 22 -45 39 -130 63 -226 63 -43 0 -78 3 -78 7 0 3 23 30 51 60 28 30 58
67 67 83 9 15 19 27 22 27 3 0 39 -9 80 -21z m160 -20 c0 -5 -7 -6 -15 -3 -8
4 -15 13 -15 21 0 13 3 13 15 3 8 -7 15 -16 15 -21z m3794 -50 c-11 -19 -40
-7 -59 24 -31 51 -30 52 18 17 26 -18 44 -37 41 -41z m-3472 -1 c49 -28 78
-74 78 -124 0 -155 -250 -204 -329 -64 -27 48 -27 86 0 129 55 90 154 113 251
59z m4418 5 c96 -43 129 -126 72 -183 -58 -57 -172 -63 -313 -15 -70 23 -179
82 -179 97 0 31 153 35 275 8 72 -16 66 -4 -11 19 -37 12 -105 23 -153 25 -84
4 -98 9 -83 33 28 44 305 55 392 16z m-4136 -12 c3 -5 -14 -11 -39 -13 -50 -4
-56 2 -22 25 22 14 48 9 61 -12z m1932 -40 c-25 -40 -47 -49 -74 -33 -9 6 3
19 40 44 29 20 54 34 56 33 2 -2 -8 -22 -22 -44z m1485 13 c5 -15 8 -28 6 -31
-2 -2 -30 -10 -61 -18 -31 -8 -78 -26 -104 -41 -26 -14 -38 -22 -27 -19 30 10
135 32 177 38 138 20 -39 -127 -204 -169 -98 -25 -183 -3 -214 57 -31 61 6
129 86 162 49 20 187 43 283 46 43 1 48 -2 58 -25z m-464 -150 c1 -20 7 -42
12 -47 12 -12 15 -137 4 -137 -4 0 -40 25 -80 56 l-73 56 0 97 1 96 25 -65
c14 -36 29 -69 35 -75 5 -5 -4 28 -21 73 -16 46 -30 88 -30 94 0 7 28 -15 63
-50 52 -51 62 -68 64 -98z m-2762 121 c28 -8 75 -29 105 -47 97 -59 126 -136
74 -198 -75 -89 -192 -81 -467 32 -105 44 -101 38 -76 106 8 20 15 22 88 22
51 0 102 -7 143 -20 74 -23 93 -25 58 -5 -49 29 -153 55 -216 55 -35 0 -64 4
-64 9 0 5 -3 16 -6 24 -4 12 7 18 48 26 116 23 223 22 313 -4z m-1613 -34 c40
-13 54 -23 56 -39 3 -21 0 -22 -95 -23 -147 -1 -169 -15 -35 -21 109 -4 131
-11 132 -40 0 -4 -26 -17 -57 -29 -70 -27 -187 -36 -248 -19 -130 36 -113 162
25 191 50 11 161 1 222 -20z m214 -6 c37 -15 65 -63 56 -97 -2 -10 -18 -29
-34 -43 -38 -33 -88 -33 -124 -1 -49 41 -32 121 31 147 28 11 31 11 71 -6z
m452 -35 c55 -24 102 -69 102 -99 0 -10 -10 -33 -23 -52 -56 -83 -180 -68
-385 48 -46 25 -61 38 -53 46 14 14 169 -6 211 -28 16 -8 30 -13 30 -10 0 15
-117 58 -171 62 -32 3 -59 10 -59 14 0 7 43 22 125 43 45 11 172 -2 223 -24z
m4543 -67 c123 -127 154 -175 154 -241 0 -46 -4 -57 -28 -78 -30 -25 -69 -30
-111 -14 -41 15 -106 80 -132 133 -26 51 -64 183 -64 224 0 39 34 29 55 -17
10 -22 42 -66 72 -98 l54 -57 -37 50 c-56 75 -89 152 -74 170 7 8 16 15 19 15
4 0 46 -39 92 -87z m-1522 52 c36 -18 79 -69 87 -101 9 -35 -13 -81 -51 -104
-25 -15 -50 -20 -108 -20 -43 0 -79 5 -82 11 -4 6 12 33 35 60 51 61 35 65
-24 5 -52 -51 -71 -48 -60 10 9 50 29 92 62 127 20 21 35 27 69 27 24 0 57 -7
72 -15z m1234 -46 c-2 -32 -12 -74 -27 -104 l-25 -50 30 35 c17 19 37 61 46
93 14 49 20 57 41 57 l24 0 -7 -87 c-3 -49 -15 -118 -26 -154 -44 -153 -192
-218 -286 -124 -44 44 -45 92 -3 159 38 59 210 238 224 233 7 -3 10 -26 9 -58z
m-1538 39 c15 -7 35 -28 45 -47 20 -41 35 -115 25 -131 -8 -13 -80 23 -94 47
-13 24 -21 13 -10 -15 5 -12 22 -30 39 -40 40 -23 38 -39 -7 -51 -112 -32
-203 11 -203 94 0 55 33 104 90 133 50 25 77 27 115 10z m-2525 -48 c0 -5 -9
-10 -19 -10 -11 0 -26 -3 -35 -6 -11 -4 -16 -1 -16 10 0 12 10 16 35 16 19 0
35 -4 35 -10z m-501 -75 c88 -83 131 -208 98 -288 -27 -64 -91 -66 -143 -5
-38 46 -82 140 -99 210 -13 57 -13 64 1 75 12 8 21 9 33 1 26 -16 80 -92 92
-129 17 -49 30 -59 18 -13 -14 48 -34 89 -65 131 -25 32 -23 63 2 63 8 0 36
-20 63 -45z m535 24 c5 -5 8 -10 5 -12 -2 -1 -31 -25 -64 -53 -157 -131 -250
-194 -306 -208 -26 -6 -27 -4 -33 47 -4 29 -20 79 -36 111 -17 32 -30 60 -30
62 0 2 26 -9 57 -23 41 -19 80 -28 133 -31 66 -3 79 -1 110 20 19 13 43 39 52
58 23 46 79 60 112 29z m-797 -14 c8 -22 -50 -134 -95 -183 -54 -58 -34 -53
26 7 30 30 59 72 73 106 21 51 25 56 49 50 14 -4 26 -8 27 -9 1 -1 -2 -32 -7
-68 -30 -213 -170 -370 -279 -313 -137 70 -62 315 122 401 61 28 76 30 84 9z
m1183 -52 c79 -87 156 -202 171 -256 16 -60 5 -107 -32 -141 -28 -24 -38 -28
-76 -23 -29 3 -57 15 -81 34 -71 58 -152 252 -152 366 0 40 3 47 20 47 11 0
20 -6 20 -14 0 -22 67 -148 100 -189 51 -60 78 -66 30 -6 -70 88 -121 209 -99
235 20 24 36 16 99 -53z m3442 35 c-18 -19 -22 -20 -22 -6 0 9 8 21 17 27 27
15 29 3 5 -21z m-3737 -19 c13 -13 -53 -141 -101 -198 -20 -23 -34 -44 -31
-47 9 -9 113 124 147 187 26 48 36 59 57 59 25 0 25 -1 18 -56 -15 -120 -89
-319 -145 -392 -29 -36 -89 -72 -121 -72 -53 0 -109 71 -109 137 1 76 91 255
181 357 36 40 46 46 68 41 14 -4 30 -11 36 -16z m340 1 c3 -5 2 -10 -4 -10 -5
0 -13 5 -16 10 -3 6 -2 10 4 10 5 0 13 -4 16 -10z m50 -20 c3 -5 -1 -10 -9
-10 -9 0 -16 5 -16 10 0 6 4 10 9 10 6 0 13 -4 16 -10z m2120 -70 c0 -31 -33
-40 -52 -14 -16 22 1 46 31 42 15 -2 21 -10 21 -28z m133 -16 c58 -19 119 -66
133 -101 11 -30 -10 -84 -42 -107 -65 -45 -177 9 -200 99 -5 22 -12 48 -15 58
-8 25 12 21 62 -13 55 -38 59 -25 4 16 -75 55 -44 81 58 48z m-204 -22 c2 -4
-6 -30 -19 -57 -31 -64 -24 -71 12 -12 38 62 56 61 70 -5 13 -67 1 -112 -42
-155 -28 -28 -40 -33 -80 -33 -38 0 -52 5 -76 29 -58 58 -31 144 65 209 50 33
62 37 70 24z"/>
<path d="M2164 5976 c-77 -36 -124 -110 -124 -196 0 -59 36 -162 80 -228 79
-117 211 -225 460 -374 361 -217 515 -358 577 -531 20 -55 20 -55 130 -26 44
11 52 17 48 34 -2 11 -6 52 -10 90 -13 149 -80 393 -153 556 -120 267 -338
502 -574 617 -171 84 -333 105 -434 58z m252 -26 c337 -85 644 -396 788 -799
44 -124 128 -486 114 -495 -2 -1 -28 -11 -59 -22 l-56 -20 -31 70 c-84 185
-227 314 -572 516 -150 87 -234 145 -318 218 -165 143 -245 320 -194 434 47
107 159 141 328 98z"/>
<path d="M4955 5813 c-16 -2 -57 -11 -90 -19 -286 -72 -615 -402 -815 -816
-65 -135 -136 -336 -123 -348 4 -4 50 -23 100 -42 l93 -36 11 42 c46 174 172
339 347 454 152 99 300 151 559 196 211 37 278 63 344 133 69 71 88 139 64
220 -44 148 -268 247 -490 216z m267 -50 c209 -77 267 -247 130 -376 -63 -58
-126 -81 -332 -117 -405 -72 -664 -215 -815 -449 -41 -64 -95 -185 -95 -214 0
-7 -3 -16 -6 -20 -6 -6 -142 40 -158 54 -21 18 105 320 204 488 98 168 281
380 418 485 87 66 216 133 303 156 100 27 268 23 351 -7z"/>
<path d="M2694 3616 c-48 -48 -47 -79 1 -37 20 17 45 31 55 31 13 0 20 7 20
20 0 31 -37 25 -76 -14z"/>
<path d="M4306 3592 c-14 -13 -4 -32 19 -38 14 -3 38 -22 55 -40 23 -27 30
-30 30 -17 0 44 -81 118 -104 95z"/>
<path d="M2885 3298 c-58 -32 -126 -131 -124 -183 0 -12 9 0 23 30 51 110 145
152 234 106 65 -35 93 -64 112 -121 23 -65 27 -36 5 37 -19 65 -48 101 -99
124 -46 21 -120 24 -151 7z"/>
<path d="M4016 3260 c-54 -17 -101 -77 -124 -162 -14 -50 -6 -48 14 2 19 47
81 104 131 121 90 29 189 -28 215 -124 13 -50 33 -66 22 -19 -19 86 -59 148
-116 178 -30 15 -97 17 -142 4z"/>
<path d="M3414 3151 c-17 -4 -36 -11 -42 -15 -31 -19 6 -126 59 -170 16 -14
29 -34 29 -46 0 -55 -58 -130 -101 -130 -28 0 -68 41 -84 85 -10 28 -14 33
-15 17 0 -35 25 -87 51 -106 30 -21 88 -21 118 0 12 9 31 30 41 46 l18 30 18
-26 c23 -36 64 -56 112 -56 67 0 123 62 102 112 -8 22 -9 22 -9 -5 -1 -18 -13
-40 -31 -59 -27 -26 -36 -30 -67 -25 -39 7 -77 37 -99 79 -20 39 -18 45 21 64
67 32 121 116 98 153 -27 43 -145 71 -219 52z m148 -43 c22 -6 42 -18 45 -25
9 -22 -41 -86 -85 -111 l-40 -22 -27 32 c-15 18 -37 52 -48 76 -19 37 -19 44
-7 52 21 14 115 12 162 -2z"/>
<path d="M2694 3044 c-34 -17 -64 -61 -64 -96 0 -69 99 -138 211 -146 51 -4
59 -2 92 28 33 28 37 37 37 80 0 60 -25 94 -94 126 -59 28 -136 31 -182 8z
m143 -19 c60 -18 113 -71 113 -113 -1 -45 -51 -92 -99 -92 -33 0 -129 40 -161
67 -50 41 -38 112 23 138 41 18 62 18 124 0z"/>
<path d="M4165 2998 c-127 -45 -156 -182 -49 -233 42 -20 69 -19 147 5 89 28
127 64 127 122 0 52 -17 80 -64 102 -38 18 -116 20 -161 4z m164 -36 c37 -27
49 -67 31 -100 -30 -55 -184 -102 -238 -73 -30 16 -54 65 -46 95 21 84 180
133 253 78z"/>
<path d="M2270 2951 c-15 -28 -13 -36 16 -70 29 -34 73 -42 94 -16 10 12 10
21 0 45 -23 56 -88 80 -110 41z m80 -31 c36 -50 0 -70 -45 -26 -27 27 -24 56
5 56 10 0 28 -13 40 -30z"/>
<path d="M2144 2902 c-26 -17 -24 -44 5 -73 44 -44 111 -37 111 12 0 39 -84
83 -116 61z m72 -35 c28 -25 26 -47 -4 -47 -27 0 -62 29 -62 51 0 27 32 25 66
-4z"/>
<path d="M2315 2816 c-56 -24 -82 -83 -65 -147 15 -56 60 -89 122 -89 44 0 54
4 84 34 30 30 34 41 34 84 0 58 -25 97 -76 118 -41 17 -60 17 -99 0z m107 -27
c27 -15 51 -74 43 -110 -20 -89 -167 -91 -189 -3 -21 82 71 153 146 113z"/>
<path d="M2096 2774 c-37 -37 -1 -84 64 -84 42 0 60 14 60 48 0 41 -93 68
-124 36z m79 -16 c34 -15 28 -42 -10 -46 -37 -4 -71 19 -62 42 7 19 36 21 72
4z"/>
<path d="M4781 2915 c-36 -42 -39 -59 -10 -79 40 -28 109 17 109 71 0 22 -26
43 -53 43 -8 0 -29 -16 -46 -35z m76 -1 c7 -19 -34 -64 -58 -64 -30 0 -31 17
-3 49 28 34 51 40 61 15z"/>
<path d="M4945 2880 c-32 -13 -65 -49 -65 -71 0 -30 42 -45 80 -29 29 12 60
44 60 62 0 11 -38 48 -47 47 -5 0 -17 -4 -28 -9z m43 -38 c4 -24 -46 -56 -72
-46 -26 10 -18 29 24 57 30 21 44 17 48 -11z"/>
<path d="M4734 2803 c-36 -7 -85 -66 -91 -110 -10 -79 43 -133 131 -133 36 0
52 6 77 28 27 24 33 38 37 83 3 45 0 59 -19 83 -22 28 -76 57 -101 55 -7 -1
-22 -4 -34 -6z m97 -52 c31 -32 39 -84 18 -123 -14 -26 -67 -48 -102 -41 -34
7 -77 56 -77 88 0 33 30 93 49 98 48 13 83 6 112 -22z"/>
<path d="M4955 2750 c-35 -13 -48 -36 -35 -59 27 -52 133 -33 133 24 0 15 -7
31 -14 36 -17 11 -57 10 -84 -1z m79 -25 c8 -22 -38 -49 -69 -41 -48 12 -20
55 36 56 15 0 29 -7 33 -15z"/>
<path d="M2051 2554 c0 -11 3 -14 6 -6 3 7 2 16 -1 19 -3 4 -6 -2 -5 -13z"/>
<path d="M4605 2020 c7 -11 65 -43 65 -36 0 2 -16 13 -36 25 -19 12 -32 16
-29 11z"/>
<path d="M1268 1813 c12 -2 32 -2 45 0 12 2 2 4 -23 4 -25 0 -35 -2 -22 -4z"/>
<path d="M3490 5930 c0 -42 27 -147 46 -175 25 -38 68 -50 128 -36 28 7 68 15
89 18 37 5 49 19 23 29 -7 3 -16 22 -20 43 -14 90 -81 140 -197 149 l-69 5 0
-33z m116 5 c10 -3 26 -75 16 -75 -8 0 -101 75 -102 82 0 6 58 1 86 -7z m88
-57 c8 -32 8 -68 -1 -68 -24 1 -53 39 -59 79 l-7 43 30 -16 c17 -8 33 -26 37
-38z m-139 8 l37 -34 -32 -7 c-17 -4 -33 -5 -34 -3 -6 6 -17 78 -13 78 3 0 21
-15 42 -34z m181 -70 c5 -22 4 -28 -7 -24 -8 2 -15 20 -17 39 -4 40 13 30 24
-15z m-92 -3 l39 -28 -39 -12 c-73 -22 -93 -15 -108 34 -6 17 -2 22 16 26 45
8 52 7 92 -20z m72 -52 c-10 -16 -103 -34 -122 -23 -15 8 -10 12 27 20 58 13
102 14 95 3z"/>
<path d="M1086 5492 l-37 -61 -29 32 c-15 18 -42 40 -59 50 l-31 18 0 -60 c0
-33 4 -71 10 -85 12 -32 11 -32 -48 -2 -49 24 -102 40 -102 31 0 -13 41 -85
64 -112 l26 -30 -78 -5 c-104 -6 -112 -12 -72 -53 18 -19 46 -39 61 -46 16 -6
29 -14 29 -18 0 -3 -28 -22 -61 -41 -85 -49 -92 -60 -38 -61 24 -1 54 0 67 1
30 2 28 -6 -13 -51 -50 -56 -47 -72 13 -63 43 6 88 19 134 39 15 6 15 0 -6
-48 -26 -58 -43 -127 -31 -127 3 0 33 20 65 45 l58 45 7 -38 c12 -68 26 -112
35 -112 12 0 44 62 60 118 12 37 30 58 30 33 0 -12 80 -91 93 -91 6 0 8 24 5
65 -3 36 -5 65 -4 65 0 0 28 -11 61 -25 56 -23 105 -32 105 -20 0 13 -41 85
-65 113 l-26 31 38 6 c78 13 105 20 106 30 0 6 -26 26 -57 45 l-58 34 23 15
c45 28 111 100 104 112 -5 7 -28 10 -66 7 -33 -2 -59 -2 -59 1 0 3 9 30 20 59
l20 52 -22 0 c-12 0 -40 -11 -63 -25 l-42 -24 9 52 c10 63 2 127 -17 127 -8 0
-26 -16 -41 -35 -27 -36 -43 -44 -45 -22 0 6 -8 30 -18 51 l-17 40 -38 -62z
m57 -16 c14 -41 14 -48 -6 -100 -12 -31 -24 -56 -28 -56 -3 0 -15 23 -27 51
l-21 51 27 49 c15 27 30 49 34 49 3 0 13 -20 21 -44z m-138 -27 c43 -48 81
-126 91 -185 6 -39 5 -42 -20 -46 -21 -4 -31 1 -47 23 -35 49 -71 138 -78 194
-9 68 2 71 54 14z m242 -21 c-7 -72 -27 -134 -63 -195 -22 -39 -27 -42 -45
-30 -18 10 -20 19 -15 60 6 55 42 140 82 192 39 51 48 45 41 -27z m-322 -80
c28 -19 80 -96 71 -105 -2 -2 -25 4 -52 14 -36 14 -58 31 -86 68 -50 66 -50
80 0 60 20 -9 51 -25 67 -37z m412 -29 c-20 -45 -28 -53 -71 -70 -28 -10 -51
-17 -52 -16 -1 1 8 22 20 47 22 45 75 90 107 90 18 0 17 -3 -4 -51z m93 -67
c0 -35 -136 -109 -219 -119 -47 -5 -51 -4 -51 15 0 41 146 109 238 111 17 1
32 -3 32 -7z m-442 -32 c45 -19 52 -26 46 -44 -4 -11 -8 -23 -10 -25 -10 -11
-133 -1 -173 13 -55 20 -114 64 -105 78 12 19 183 4 242 -22z m136 -39 c19
-21 13 -47 -14 -61 -25 -14 -49 -2 -56 26 -12 47 37 72 70 35z m-195 -57 c2
-2 2 -5 0 -7 -73 -51 -91 -58 -152 -55 l-62 3 60 38 c54 34 65 37 105 32 25
-4 47 -9 49 -11z m491 -55 c0 -4 -14 -9 -31 -13 -63 -12 -98 -7 -140 24 l-41
29 29 6 c15 4 39 10 53 14 18 6 38 0 77 -23 29 -17 53 -33 53 -37z m-379 45
c12 -15 8 -22 -31 -56 -25 -21 -68 -49 -96 -63 -59 -28 -134 -43 -134 -27 0
19 103 102 164 132 68 35 79 36 97 14z m154 -25 c68 -36 180 -158 161 -176 -3
-3 -26 2 -50 11 -77 29 -190 146 -171 176 9 14 15 13 60 -11z m-83 -44 c7 -42
-5 -146 -22 -190 -6 -14 -15 -37 -21 -52 -9 -24 -12 -26 -20 -11 -26 47 -19
223 13 281 16 31 42 16 50 -28z m-86 -22 c-3 -10 -8 -39 -12 -65 -6 -43 -12
-52 -56 -84 -27 -20 -51 -35 -53 -33 -10 11 56 151 81 173 34 30 47 33 40 9z
m156 -40 c32 -33 37 -45 40 -96 1 -31 0 -57 -4 -57 -3 0 -25 21 -47 46 -36 41
-41 53 -41 95 0 27 4 49 8 49 4 0 24 -17 44 -37z"/>
<path d="M6276 5035 c-17 -49 -34 -71 -71 -92 -22 -13 -35 -23 -28 -23 23 0
72 -51 78 -83 12 -52 16 -51 46 1 16 28 44 60 66 73 l37 23 -33 7 c-42 9 -71
37 -81 80 -6 29 -8 31 -14 14z m21 -60 c3 -9 18 -22 34 -31 l29 -14 -40 -40
c-22 -22 -40 -46 -40 -52 -1 -7 -7 1 -14 17 -7 17 -23 38 -34 48 l-21 19 32
33 c36 38 45 41 54 20z"/>
<path d="M2015 4885 c-114 -26 -169 -42 -172 -52 -6 -17 162 -168 213 -192 39
-19 61 -22 114 -19 70 4 184 48 194 75 8 19 -25 74 -78 130 -62 68 -146 86
-271 58z m138 -55 c14 -37 14 -40 -2 -40 -32 0 -109 31 -115 47 -10 25 3 33
53 33 47 0 48 -1 64 -40z m35 33 c16 -4 30 -21 43 -51 22 -51 19 -60 -15 -44
-26 12 -50 42 -61 80 -7 24 -3 25 33 15z m-173 -41 c-10 -2 -33 0 -53 4 l-37
7 40 12 c35 11 42 11 53 -4 11 -13 10 -17 -3 -19z m280 -38 c39 -47 41 -63 5
-44 -20 11 -60 66 -60 83 0 18 20 4 55 -39z m-268 18 c9 -6 4 -17 -20 -40
l-33 -32 -39 40 -39 40 59 0 c33 0 66 -4 72 -8z m112 -26 l34 -12 -25 -20
c-13 -10 -32 -32 -42 -49 -18 -29 -18 -29 9 3 15 18 40 39 56 47 25 14 33 14
64 1 l35 -15 -50 -47 -51 -47 -49 11 c-55 13 -130 57 -130 78 0 20 62 64 90
63 14 0 40 -6 59 -13z m204 -75 c9 -9 -103 -51 -132 -51 -10 1 -1 14 24 36 33
29 45 34 70 30 16 -4 33 -10 38 -15z"/>
<path d="M5290 4801 c-87 -27 -170 -100 -214 -188 -14 -29 -26 -56 -26 -62 0
-15 129 -34 235 -35 136 -1 157 11 258 144 43 57 76 108 74 114 -9 27 -259 48
-327 27z m241 -38 c5 -5 -19 -22 -56 -41 -57 -28 -65 -30 -66 -14 0 14 -3 13
-11 -5 -7 -15 -37 -32 -90 -53 -91 -34 -92 -34 -85 -17 3 6 17 39 31 72 17 42
32 62 48 67 31 10 218 2 229 -9z m-294 -70 c-14 -26 -33 -58 -43 -70 -18 -20
-112 -58 -122 -49 -6 7 52 87 85 117 38 36 97 71 101 60 2 -5 -8 -31 -21 -58z
m283 -2 c-29 -36 -35 -38 -56 -29 -13 6 -24 14 -24 18 0 7 103 59 109 55 1 -2
-11 -22 -29 -44z m-68 -37 l30 -16 -37 -38 c-50 -51 -78 -56 -138 -26 -26 14
-48 28 -48 32 0 8 126 61 149 63 7 1 27 -6 44 -15z m-182 -80 c22 -9 40 -20
40 -25 0 -11 -110 -11 -165 0 -43 8 -43 8 25 34 27 10 59 7 100 -9z"/>
<path d="M5411 4744 c0 -11 3 -14 6 -6 3 7 2 16 -1 19 -3 4 -6 -2 -5 -13z"/>
<path d="M6628 4209 l-14 -41 -31 26 c-17 14 -34 26 -37 26 -3 0 -6 -18 -6
-40 l0 -40 -35 17 c-19 9 -38 14 -41 10 -4 -4 0 -26 9 -49 19 -48 13 -58 -40
-58 -18 0 -33 -3 -33 -7 0 -4 14 -21 31 -39 l30 -31 -35 -7 c-20 -4 -36 -12
-36 -17 0 -6 22 -20 50 -32 l50 -21 -25 -32 c-14 -18 -25 -35 -25 -38 0 -3 18
-6 40 -6 45 0 44 1 30 -34 -8 -23 -7 -26 13 -26 13 0 32 7 43 15 31 23 41 18
47 -26 7 -55 15 -59 42 -24 13 16 26 27 28 25 1 -3 12 -18 22 -35 l19 -30 12
30 c7 17 13 41 14 54 0 20 4 22 23 16 12 -4 35 -9 50 -12 l28 -5 -15 37 c-9
21 -15 39 -14 41 2 1 22 -1 46 -6 23 -4 44 -4 46 -1 3 4 -10 25 -29 46 l-33
40 44 15 c24 8 45 20 46 25 2 6 -18 21 -43 35 l-47 25 24 35 c37 53 32 64 -21
57 l-44 -7 5 33 c3 17 7 37 9 44 10 33 -42 14 -84 -31 -28 -30 -41 -33 -41
-11 0 22 -38 95 -49 95 -5 0 -16 -19 -23 -41z m61 -64 c6 -22 11 -57 11 -78 0
-35 -2 -37 -26 -34 -14 2 -30 10 -35 18 -12 19 -11 111 1 145 10 26 11 27 24
8 8 -10 19 -37 25 -59z m-79 -23 l0 -33 -30 21 c-23 17 -30 29 -30 56 l0 35
30 -23 c23 -17 30 -30 30 -56z m194 31 c-4 -21 -11 -40 -16 -41 -5 -2 -22 -15
-37 -28 -37 -31 -41 -30 -41 5 0 21 11 39 40 65 52 46 63 46 54 -1z m-258 -42
c58 -43 86 -75 78 -94 -8 -22 -14 -21 -53 7 -54 40 -102 116 -73 116 5 0 27
-13 48 -29z m334 -7 c0 -15 -44 -65 -73 -83 -49 -30 -83 -36 -91 -15 -13 33
78 103 137 104 15 0 27 -3 27 -6z m-339 -78 l29 -25 -46 -7 c-43 -6 -48 -4
-77 25 l-32 31 49 0 c36 0 55 -6 77 -24z m157 -38 c4 -33 -30 -57 -54 -37 -30
24 -8 72 31 67 13 -2 21 -12 23 -30z m182 16 c22 -9 40 -19 40 -24 0 -4 -18
-12 -40 -19 -33 -10 -45 -9 -72 5 l-31 16 24 19 c29 23 29 23 79 3z m-266 -39
c11 -31 -99 -48 -160 -25 -33 13 -26 21 23 30 70 14 130 11 137 -5z m210 -30
c25 -20 46 -38 46 -40 0 -2 3 -10 6 -19 5 -14 1 -14 -40 -2 -54 16 -116 60
-116 82 0 27 55 16 104 -21z m-174 -17 c0 -23 -38 -75 -74 -103 -44 -33 -53
-28 -31 18 30 63 105 124 105 85z m76 -43 c15 -54 12 -135 -5 -135 -15 0 -43
77 -48 133 -5 53 -4 57 15 57 17 0 25 -11 38 -55z m-175 6 c-13 -18 -32 -30
-51 -33 -35 -5 -35 -5 -13 33 14 23 24 29 51 29 l33 0 -20 -29z m264 -48 c8
-20 13 -38 11 -40 -10 -10 -76 30 -76 46 0 9 -3 27 -7 39 -6 24 -6 24 26 8 18
-10 37 -31 46 -53z m-152 -9 c6 -34 -8 -84 -24 -84 -4 0 -11 17 -16 38 -7 29
-6 42 6 59 22 31 27 29 34 -13z"/>
<path d="M631 3617 c-1 -94 -19 -138 -68 -168 -42 -26 -36 -34 22 -30 55 3
109 -13 153 -46 23 -18 33 -21 36 -11 3 7 12 40 21 73 9 33 25 74 36 91 10 17
19 34 19 38 0 3 -18 6 -40 6 -67 0 -121 35 -167 106 -10 16 -12 5 -12 -59z
m83 -37 c32 -17 68 -30 78 -30 11 0 18 -6 16 -12 -2 -7 -14 -46 -27 -85 l-23
-73 -36 25 c-21 14 -54 28 -75 32 -21 3 -36 8 -34 12 22 40 40 93 41 123 0 21
1 38 1 38 0 0 27 -14 59 -30z"/>
</g>
</svg>
