<?xml version="1.0" standalone="no"?>
<!DOCTYPE svg PUBLIC "-//W3C//DTD SVG 20010904//EN"
 "http://www.w3.org/TR/2001/REC-SVG-20010904/DTD/svg10.dtd">
<svg version="1.0" xmlns="http://www.w3.org/2000/svg"
 width="740.000000pt" height="740.000000pt" viewBox="0 0 740.000000 740.000000"
 preserveAspectRatio="xMidYMid meet">

<g transform="translate(0.000000,740.000000) scale(0.100000,-0.100000)"
fill="#000000" stroke="none">
<path d="M5705 6980 c-9 -31 -44 -70 -62 -70 -21 0 -15 -18 8 -25 11 -4 28
-25 38 -48 l18 -42 17 32 c9 18 30 42 46 54 l29 22 -32 16 c-21 11 -36 28 -43
51 -11 33 -12 34 -19 10z m37 -54 l27 -24 -31 -35 -31 -35 -23 34 -23 34 22
24 c28 30 27 30 59 2z"/>
<path d="M3388 6907 c-9 -20 -30 -40 -46 -48 l-30 -13 28 -17 c16 -10 33 -33
40 -54 l12 -37 18 29 c9 16 32 41 50 56 18 15 30 31 26 34 -3 4 -6 3 -6 -1 0
-3 -13 0 -30 9 -18 10 -32 27 -37 46 l-8 31 -17 -35z m39 -36 l29 -28 -33 -38
c-18 -21 -33 -32 -33 -25 0 8 -10 24 -21 36 l-21 23 23 30 c13 16 25 30 26 30
1 1 14 -12 30 -28z"/>
<path d="M1569 6830 l-11 -30 -29 21 -29 20 0 -31 c0 -27 -3 -31 -17 -25 -53
22 -56 21 -39 -20 19 -45 14 -55 -25 -55 -35 0 -36 -6 -8 -36 l22 -23 -27 -7
c-37 -9 -32 -23 14 -41 l39 -16 -19 -25 c-27 -34 -25 -39 11 -34 30 4 31 3 25
-22 -5 -21 -3 -26 12 -26 9 0 27 7 40 15 21 15 22 15 28 -25 7 -45 16 -50 38
-18 l15 21 20 -24 19 -24 11 28 c6 16 11 35 11 44 0 11 4 13 13 6 17 -14 57
-23 57 -13 0 5 -4 20 -9 33 -10 24 -9 25 31 19 45 -6 45 0 5 45 l-20 22 29 11
c16 6 36 13 44 16 10 4 6 10 -15 24 -17 11 -36 20 -42 20 -17 0 -17 3 8 44
l21 36 -37 0 c-37 0 -37 1 -33 35 5 44 -10 45 -54 6 l-34 -29 -18 44 c-21 52
-33 55 -47 14z m51 -60 c17 -60 13 -80 -14 -80 -13 0 -27 7 -30 16 -8 20 -7
82 1 113 6 23 7 23 20 5 7 -10 18 -34 23 -54z m-60 -17 c0 -23 -1 -23 -25 -7
-18 11 -25 25 -25 47 l0 30 25 -23 c14 -13 25 -34 25 -47z m150 38 c0 -21 -9
-36 -35 -55 l-35 -27 0 26 c0 17 11 38 31 56 17 16 33 29 35 29 2 0 4 -13 4
-29z m-197 -47 c51 -37 66 -59 50 -75 -13 -13 -78 41 -99 82 -19 38 -9 36 49
-7z m257 -2 c0 -14 -64 -70 -92 -81 -19 -7 -29 -7 -37 3 -18 22 61 85 107 86
12 0 22 -4 22 -8z m-271 -56 l22 -24 -33 -5 c-33 -5 -78 14 -78 33 0 5 12 11
28 13 15 2 30 5 33 6 3 0 16 -10 28 -23z m121 -21 c17 -20 5 -45 -20 -45 -23
0 -35 22 -26 45 7 19 30 19 46 0z m153 -2 l32 -16 -32 -14 c-25 -10 -38 -10
-58 -1 -14 6 -25 14 -25 18 0 6 34 26 48 29 2 1 17 -6 35 -16z m-215 -30 c-5
-25 -64 -37 -111 -23 -45 13 -42 20 10 30 71 14 105 12 101 -7z m172 -29 c48
-43 51 -56 10 -44 -44 13 -100 49 -100 66 0 27 49 15 90 -22z m-142 -12 c2 -7
-17 -34 -44 -60 -70 -69 -71 -21 -1 56 22 23 38 25 45 4z m60 -33 c8 -29 10
-56 4 -79 l-8 -35 -16 30 c-20 38 -32 99 -24 121 10 26 30 10 44 -37z m-138
10 c-13 -23 -31 -32 -55 -27 -26 5 10 48 41 48 22 0 23 -2 14 -21z m209 -40
c8 -22 7 -29 -3 -29 -21 0 -45 24 -52 53 -6 27 -5 27 19 16 14 -6 30 -25 36
-40z m-119 -25 c0 -11 -6 -29 -14 -39 -13 -19 -15 -17 -21 18 -8 41 11 80 26
55 5 -7 9 -22 9 -34z"/>
<path d="M4524 6761 c-21 -15 -49 -39 -61 -52 -30 -32 -72 -127 -75 -167 -3
-43 -12 -48 -28 -17 -25 47 -127 100 -229 119 -31 6 -33 4 -27 -17 16 -66 120
-199 181 -233 18 -10 17 -13 -20 -32 -78 -39 -159 -143 -167 -212 -3 -24 -1
-25 47 -22 67 3 145 43 194 98 l40 46 7 -29 c10 -42 49 -116 81 -153 26 -32
108 -90 125 -90 12 0 9 80 -6 135 -7 28 -26 75 -42 105 -16 30 -30 58 -32 61
-1 3 29 9 67 12 82 7 163 42 218 93 30 28 34 37 23 44 -29 18 -149 33 -224 28
-68 -4 -76 -3 -70 11 41 92 60 183 55 274 -1 34 -9 34 -57 -2z m43 -63 c-6
-80 -32 -159 -72 -220 -15 -22 -24 -42 -21 -45 2 -3 25 3 50 12 65 25 266 14
266 -15 0 -13 -75 -60 -129 -80 -55 -21 -165 -27 -191 -10 -12 8 -12 10 5 10
11 0 40 10 65 21 44 21 45 21 20 31 -14 5 -43 7 -65 4 l-40 -5 4 80 c4 94 -8
102 -39 27 l-21 -53 5 61 c5 78 39 146 105 207 27 26 53 47 57 47 4 0 4 -33 1
-72z m-352 -99 c51 -15 78 -31 111 -64 24 -24 46 -55 50 -69 3 -14 13 -26 22
-26 11 0 13 -3 5 -11 -7 -7 -21 -4 -47 12 -43 25 -55 20 -32 -16 32 -49 -38
-19 -95 42 -41 42 -106 153 -91 153 5 0 40 -9 77 -21z m232 -142 l-5 -74 44
10 c31 7 48 7 55 0 8 -8 -4 -15 -40 -24 -28 -7 -51 -18 -51 -23 1 -6 5 -30 9
-54 13 -64 -5 -60 -29 7 l-22 59 -32 -19 c-17 -10 -40 -19 -51 -18 -13 0 -3 9
28 25 26 13 47 26 47 29 0 2 -13 11 -30 20 -16 8 -34 24 -40 36 -11 20 -11 20
19 5 16 -9 33 -20 36 -26 13 -21 31 -9 33 23 3 37 21 97 29 97 3 0 3 -33 0
-73z m-110 -103 c-73 -38 -78 -64 -7 -46 45 11 45 11 26 -27 -33 -62 -117
-120 -198 -135 -33 -6 -38 -4 -38 12 0 24 48 99 91 140 37 37 148 94 163 85 5
-3 -12 -17 -37 -29z m78 -51 c9 -37 44 -93 57 -93 7 0 9 19 5 53 l-6 52 21
-25 c36 -42 77 -142 84 -202 9 -75 -2 -75 -76 1 -58 60 -89 120 -104 204 -8
43 8 51 19 10z"/>
<path d="M640 6723 c0 -16 -9 -47 -20 -71 -15 -33 -29 -47 -60 -60 -22 -9 -40
-20 -40 -23 0 -4 18 -9 40 -13 28 -4 55 -19 84 -46 l44 -41 25 43 c14 24 37
54 51 67 33 31 33 38 -3 46 -35 7 -101 76 -101 105 0 11 -4 20 -10 20 -5 0
-10 -12 -10 -27z m100 -108 c18 -6 18 -9 -15 -57 -19 -28 -35 -55 -35 -60 0
-6 -20 8 -45 31 -24 22 -50 41 -57 41 -6 0 0 13 15 28 15 15 32 42 38 60 l11
33 34 -35 c18 -19 43 -37 54 -41z"/>
<path d="M6856 6420 c-8 -52 -70 -116 -120 -126 -20 -3 -36 -11 -36 -18 0 -6
25 -24 55 -40 64 -33 113 -85 122 -127 8 -42 19 -36 33 20 15 64 59 123 109
146 45 20 45 35 2 35 -44 0 -93 39 -121 97 -14 29 -28 52 -31 53 -4 0 -9 -18
-13 -40z m105 -115 l31 -17 -30 -31 c-33 -35 -62 -87 -62 -112 0 -22 -17 -19
-25 5 -6 20 -101 110 -116 110 -5 0 -9 5 -9 10 0 6 5 10 12 10 23 0 75 49 92
89 l19 40 28 -44 c15 -24 42 -51 60 -60z"/>
<path d="M3066 6258 c-10 -21 -29 -41 -47 -48 l-30 -13 30 -18 c17 -10 34 -33
41 -54 l12 -37 23 39 c13 21 35 45 49 53 30 16 34 30 8 30 -22 0 -58 37 -64
65 -3 16 -7 14 -22 -17z m42 -36 l29 -27 -33 -39 c-21 -24 -34 -33 -34 -24 0
9 -10 26 -23 38 l-23 22 25 28 c14 15 27 28 27 29 1 0 15 -11 32 -27z"/>
<path d="M1353 5981 c-6 -17 -25 -39 -42 -49 l-31 -19 25 -11 c23 -11 33 -25
50 -77 6 -18 9 -16 26 17 10 20 33 48 51 62 28 22 30 26 13 26 -26 1 -48 18
-66 53 l-15 27 -11 -29z m46 -40 c27 -25 29 -31 16 -39 -9 -5 -24 -21 -34 -36
l-18 -27 -12 30 c-7 16 -19 32 -28 35 -11 5 -8 12 14 35 15 17 29 30 29 31 1
0 16 -13 33 -29z"/>
<path d="M2186 5889 c-182 -63 -284 -217 -274 -415 4 -71 10 -94 43 -161 31
-64 57 -97 144 -183 164 -163 310 -255 571 -360 270 -109 370 -168 437 -263
l32 -45 -67 -42 c-96 -61 -256 -227 -316 -328 -78 -131 -146 -335 -146 -438 0
-20 -4 -34 -9 -32 -5 2 -37 41 -71 88 -35 47 -102 130 -149 185 -95 110 -348
365 -362 365 -12 0 -11 -388 2 -530 9 -108 33 -273 45 -312 4 -13 -9 -9 -53
18 -105 63 -138 68 -414 65 -256 -2 -263 -1 -383 45 -18 7 -19 3 -12 -67 3
-41 9 -92 12 -114 l6 -40 -21 25 c-11 14 -28 42 -37 63 -9 20 -21 37 -26 37
-11 0 -71 -128 -100 -209 -42 -123 -33 -260 27 -384 13 -28 22 -53 20 -55 -7
-7 -206 240 -201 251 2 7 21 62 42 122 46 138 56 267 29 361 -19 66 -106 274
-115 274 -3 0 -14 -23 -24 -52 -19 -55 -63 -128 -77 -128 -4 0 -17 13 -28 29
-28 38 -160 155 -168 148 -3 -4 -16 -50 -29 -102 -84 -349 6 -567 271 -655 60
-20 68 -27 137 -112 107 -132 109 -137 38 -80 -36 29 -90 65 -120 80 -48 24
-67 27 -145 26 -77 0 -103 -5 -179 -35 -49 -19 -91 -39 -93 -45 -2 -7 15 -23
39 -37 24 -14 81 -56 129 -94 128 -103 163 -118 279 -117 74 1 112 7 173 28
43 14 82 24 87 21 24 -15 170 -209 170 -226 0 -16 -10 -12 -67 25 -82 52 -213
119 -220 112 -6 -6 22 -129 43 -188 7 -20 11 -38 8 -41 -2 -2 -33 2 -69 8 -35
7 -66 10 -69 7 -3 -2 2 -18 10 -35 l16 -30 -38 7 c-90 16 -184 19 -184 6 0
-26 74 -150 122 -204 28 -31 49 -58 47 -60 -2 -1 -25 -15 -51 -30 -27 -15 -48
-33 -48 -40 0 -8 -18 -16 -47 -20 -69 -9 -233 -57 -233 -68 0 -24 192 -159
282 -198 32 -14 58 -28 58 -31 0 -3 -11 -11 -25 -17 -14 -6 -45 -30 -69 -52
-50 -46 -59 -48 -73 -17 -34 73 -113 127 -188 127 -96 0 -140 -55 -133 -164 7
-111 81 -220 200 -293 32 -20 57 -37 55 -39 -2 -2 -34 2 -72 7 -107 17 -222 8
-275 -22 -60 -32 -95 -99 -86 -163 11 -68 55 -129 117 -160 101 -50 265 -28
384 53 25 17 48 31 50 31 2 0 -21 -38 -50 -86 -69 -109 -88 -167 -83 -249 12
-193 226 -247 309 -78 28 57 37 175 20 267 -6 33 -9 61 -7 64 3 2 18 -25 35
-62 35 -77 110 -158 164 -175 26 -9 37 -18 37 -32 0 -27 13 -24 84 16 58 32
178 152 193 192 10 26 23 12 23 -26 0 -91 68 -317 93 -308 27 9 120 209 149
320 7 26 15 47 18 46 3 0 22 -36 44 -79 41 -85 163 -245 186 -245 26 0 51 137
57 308 3 86 7 157 10 157 2 0 21 -16 43 -36 59 -54 99 -83 171 -119 71 -36
174 -70 188 -61 4 3 6 18 3 33 l-5 27 28 -22 c18 -14 42 -22 68 -22 36 0 47 7
100 60 33 33 62 60 64 60 1 0 3 -11 3 -24 0 -15 12 -35 32 -51 27 -23 39 -26
75 -22 24 2 57 15 75 29 l33 25 50 -38 c60 -47 167 -93 253 -109 88 -18 251
-8 329 18 l62 22 53 -25 c41 -19 69 -25 123 -25 71 0 91 8 168 63 24 17 26 17
98 -22 143 -76 304 -98 474 -62 l100 21 30 -35 c46 -52 92 -75 152 -75 66 0
102 29 134 107 26 66 119 236 125 230 2 -2 -10 -34 -27 -71 -63 -134 -48 -249
42 -330 105 -94 255 -77 319 36 41 74 31 164 -35 323 -5 10 16 -6 47 -36 72
-73 127 -99 204 -99 32 1 70 7 84 14 22 13 27 12 53 -10 34 -28 62 -30 119 -7
29 12 43 13 46 5 13 -39 50 -77 78 -80 47 -5 58 17 64 127 l5 96 27 -45 c47
-81 97 -131 126 -128 14 2 29 11 33 20 5 10 13 26 18 35 5 13 22 19 54 21 58
4 97 39 97 88 l0 32 40 -15 c36 -14 41 -14 64 1 17 10 31 35 41 70 21 73 36
84 81 63 47 -23 61 -21 80 8 18 27 13 54 -18 97 l-19 28 34 0 c45 0 71 28 62
68 -5 26 -2 32 22 44 19 9 29 22 31 40 2 16 11 30 22 33 35 11 62 56 55 92 -5
30 -4 33 20 33 34 0 65 33 65 69 0 43 -41 85 -115 117 -67 29 -81 44 -42 44
34 1 104 36 116 58 22 41 13 62 -33 82 -55 23 -61 32 -61 97 0 40 -5 57 -22
74 l-22 22 24 32 c34 43 88 165 113 255 34 117 81 350 72 355 -4 3 -32 -6 -61
-19 -30 -13 -97 -36 -149 -51 -52 -15 -113 -36 -136 -45 l-41 -18 5 102 c4 89
1 110 -21 176 -47 139 -147 330 -147 281 0 -4 -64 -59 -142 -122 -227 -180
-313 -282 -358 -421 -6 -21 -14 -38 -17 -38 -3 0 -23 20 -44 44 -42 48 -94 72
-131 61 -13 -4 -38 -21 -55 -38 l-33 -31 -35 17 c-73 35 -101 14 -98 -72 3
-48 17 -115 40 -178 3 -10 -20 10 -51 44 -76 82 -128 123 -168 129 -53 9 -72
-13 -78 -88 l-5 -63 -48 3 c-54 4 -77 -9 -77 -42 0 -22 -38 -63 -97 -103 -26
-19 -32 -20 -37 -7 -10 26 99 168 228 297 67 67 140 143 162 168 38 43 44 46
105 53 103 11 224 43 305 81 108 50 180 126 278 295 43 74 96 156 117 182 22
26 39 49 39 52 0 3 -24 12 -52 21 -69 20 -225 20 -303 0 -253 -65 -432 -276
-460 -541 -6 -51 -14 -77 -32 -99 -51 -61 -206 -226 -209 -222 -2 2 22 60 55
128 49 103 171 407 195 486 4 12 75 84 159 161 210 193 286 275 328 357 47 91
58 144 70 350 5 94 12 182 15 198 8 36 -11 36 -118 -3 -244 -89 -397 -254
-457 -491 -31 -121 -42 -283 -30 -423 l10 -121 -64 -165 c-65 -167 -162 -388
-176 -403 -4 -4 -11 38 -15 95 -3 57 -15 141 -25 188 -25 114 -17 162 48 276
83 144 95 183 96 304 0 95 -3 110 -27 155 -14 28 -44 67 -65 88 l-39 37 28 58
c95 192 41 582 -117 852 -148 252 -391 446 -670 533 -303 95 -468 50 -562
-150 -31 -68 -81 -263 -88 -350 -10 -106 -12 -113 -41 -113 -19 0 -25 4 -20
15 7 18 -10 66 -27 77 -43 27 -148 -15 -185 -74 -15 -23 -22 -28 -25 -18 -3 8
-17 60 -32 115 -95 348 -284 666 -549 922 -276 267 -501 361 -700 292z m269
-34 c235 -79 526 -349 728 -675 96 -157 206 -423 267 -650 11 -40 14 -43 24
-26 23 39 87 104 115 116 16 6 40 10 53 8 32 -4 37 -57 8 -98 -18 -25 -19 -31
-6 -36 8 -3 28 4 45 17 34 25 93 23 137 -6 36 -23 82 -101 90 -150 10 -70 -36
-133 -114 -155 -74 -20 -173 32 -217 114 -21 39 -45 48 -45 17 0 -30 61 -103
115 -136 40 -25 59 -30 109 -30 73 1 114 20 153 72 24 31 28 46 28 97 0 50 -6
71 -33 119 -18 31 -29 57 -24 57 14 0 165 -90 221 -132 146 -110 255 -258 316
-428 14 -41 44 -149 66 -240 22 -91 60 -226 84 -302 25 -75 49 -165 54 -200
17 -122 -16 -230 -105 -340 l-46 -58 -73 0 c-142 0 -268 -61 -393 -189 l-67
-69 -78 -11 c-289 -40 -606 37 -847 207 -88 62 -228 204 -269 274 -101 174
-146 461 -106 688 50 287 220 545 452 690 41 26 72 52 73 61 0 28 -64 112
-123 159 -65 53 -156 100 -331 169 -272 109 -436 210 -592 365 -82 82 -108
116 -140 180 -37 75 -39 85 -39 170 0 81 3 98 31 156 49 102 149 187 248 211
66 15 156 9 231 -16z m1880 -696 c490 -128 827 -522 875 -1023 27 -275 -54
-446 -210 -446 -137 0 -318 137 -456 345 -69 103 -93 144 -347 580 -103 176
-191 327 -197 335 -9 13 -16 9 -44 -22 -66 -75 -126 -232 -126 -331 0 -49 0
-49 -27 -42 -16 4 -29 8 -31 9 -5 5 37 209 63 303 65 242 159 330 340 318 44
-2 116 -14 160 -26z m-292 -344 l55 -95 -29 -54 c-17 -31 -36 -83 -43 -116 -6
-33 -16 -61 -21 -61 -6 1 -43 13 -84 28 l-74 27 6 65 c7 81 44 186 89 252 18
27 36 49 39 49 3 0 31 -43 62 -95z m77 -134 c7 -15 4 -32 -15 -72 -13 -29 -27
-77 -31 -106 -6 -52 -16 -65 -31 -41 -14 24 11 148 43 210 17 33 20 34 34 9z
m174 -299 c183 -313 259 -431 337 -515 32 -36 59 -67 59 -69 0 -2 -16 -2 -36
0 -33 4 -36 2 -31 -14 3 -11 21 -73 40 -139 55 -195 107 -276 249 -386 130
-101 132 -104 171 -225 50 -153 68 -249 74 -396 l6 -127 -48 -78 c-56 -89 -95
-143 -104 -143 -3 0 -16 24 -29 53 -19 45 -21 57 -11 92 17 59 15 192 -4 255
-33 113 -157 239 -237 243 -32 2 -34 0 -66 -73 -19 -41 -35 -79 -36 -83 -2 -5
-29 -1 -60 8 l-56 16 46 62 c87 114 120 228 101 346 -5 36 -28 119 -49 185
-22 67 -61 211 -88 321 -27 110 -62 232 -77 270 -60 151 -163 292 -286 393
-58 47 -69 61 -69 87 1 56 34 175 49 175 3 0 73 -116 155 -258z m-2243 -199
c0 -21 2 -24 7 -10 6 15 15 9 58 -35 l51 -53 -27 -60 -28 -60 -10 40 c-34 126
-40 149 -41 137 -1 -7 8 -53 19 -103 12 -51 19 -94 16 -96 -2 -3 -18 5 -35 18
l-31 23 0 113 c0 69 4 113 10 113 6 0 10 -12 11 -27z m3912 -36 c-22 -23 -58
-65 -81 -94 l-40 -52 -7 60 c-4 33 -5 62 -2 65 9 10 162 71 166 68 3 -3 -13
-23 -36 -47z m43 -20 c-12 -58 -12 -59 -71 -87 -33 -16 -62 -30 -64 -30 -2 0
9 17 25 38 41 55 116 143 119 140 2 -2 -3 -29 -9 -61z m-185 -54 c4 -80 -4
-104 -64 -207 -34 -58 -65 -105 -69 -106 -5 0 -8 14 -8 31 0 17 -11 64 -25
106 -25 73 -25 76 -8 96 26 29 146 117 161 117 7 0 13 -15 13 -37z m-3571 -73
l62 -70 -27 -28 c-29 -28 -85 -135 -85 -162 0 -30 -20 8 -49 96 -29 86 -30 94
-17 135 17 57 37 99 47 99 4 0 35 -32 69 -70z m3743 -17 c-7 -149 -12 -173
-37 -173 -36 0 -135 -29 -189 -55 -28 -13 -53 -22 -55 -20 -6 6 104 199 134
234 23 28 115 81 139 81 7 0 10 -23 8 -67z m-3917 -48 c26 -20 38 -41 58 -109
14 -46 26 -86 26 -89 0 -3 -22 9 -50 28 -27 18 -53 35 -58 37 -11 4 -27 158
-16 158 4 0 22 -11 40 -25z m3567 -40 c10 -27 21 -77 24 -111 6 -60 3 -67 -53
-194 l-59 -132 -8 44 c-4 24 -19 82 -33 129 l-26 86 25 62 c32 79 88 172 102
168 5 -2 18 -26 28 -52z m-3292 -4 c8 -10 32 -40 53 -65 l39 -47 -75 -73 c-41
-40 -80 -87 -87 -105 -8 -17 -17 -31 -21 -31 -4 0 -18 25 -30 55 -25 62 -23
103 9 177 21 50 67 108 86 108 7 0 19 -9 26 -19z m3619 -111 c0 -31 -33 -111
-70 -167 -31 -47 -38 -52 -96 -68 -35 -9 -97 -34 -139 -55 -41 -21 -75 -34
-75 -30 0 26 94 228 113 242 50 39 194 95 250 97 11 1 17 -6 17 -19z m-3877
-19 c62 -42 81 -68 110 -144 22 -59 23 -68 9 -61 -28 11 -115 34 -133 34 -18
0 -22 16 -35 138 -3 34 -3 62 1 62 3 0 25 -13 48 -29z m-1463 -46 c11 -13 9
-24 -10 -66 -27 -57 -36 -51 -45 31 -4 30 -9 64 -12 74 -5 18 -4 18 24 -2 16
-12 36 -28 43 -37z m4162 13 c61 -35 62 -38 50 -116 l-7 -43 -79 96 c-43 53
-81 94 -83 92 -2 -3 25 -44 62 -92 36 -49 65 -92 65 -95 0 -10 -93 22 -102 34
-3 6 -13 37 -22 71 -8 34 -18 69 -22 78 -10 28 73 13 138 -25z m-3942 -10 c0
-55 -12 -75 -30 -53 -11 13 -11 23 0 55 17 52 30 51 30 -2z m1687 -65 l36 -52
-47 -47 c-32 -32 -63 -79 -94 -145 -26 -54 -50 -99 -53 -99 -3 0 -29 50 -58
111 l-51 111 20 45 c12 28 49 74 92 116 l72 69 23 -28 c13 -16 40 -52 60 -81z
m-1973 -24 c6 -49 5 -60 -6 -54 -7 3 -6 1 3 -7 13 -11 64 -139 56 -143 -1 0
-28 1 -59 3 l-58 4 0 41 c0 77 11 119 29 113 14 -5 14 -4 -1 7 -15 12 -15 18
0 88 15 67 17 71 23 42 3 -18 9 -60 13 -94z m313 50 c-3 -11 -1 -19 4 -19 8 0
39 -63 39 -79 0 -3 -18 -16 -40 -28 -44 -23 -45 -22 -29 47 5 25 10 60 9 78 0
23 3 31 11 27 6 -4 9 -16 6 -26z m4279 -166 c-2 -3 -18 10 -34 28 l-29 32 23
56 c13 31 24 63 25 71 1 8 6 -29 11 -84 5 -54 7 -100 4 -103z m75 125 c6 -12
-1 -32 -26 -74 l-35 -58 0 35 c0 19 -3 66 -6 104 l-7 70 33 -30 c17 -16 36
-37 41 -47z m-4517 -87 c-19 -19 -44 -51 -54 -70 l-18 -36 -15 35 c-31 71 -31
103 -2 161 l28 54 48 -55 48 -55 -35 -34z m4249 88 c16 -17 26 -37 24 -43 -3
-7 -11 -56 -17 -109 -7 -54 -14 -97 -15 -97 -1 0 -26 36 -55 80 l-52 80 7 66
7 66 36 -6 c23 -4 48 -19 65 -37z m147 29 c0 -7 -14 -37 -31 -67 l-31 -54 -27
54 -27 54 44 7 c24 4 47 9 50 12 10 10 22 6 22 -6z m-4286 -23 c19 -29 19 -37
5 -88 l-10 -39 -34 48 -34 47 22 28 c25 35 30 36 51 4z m4702 -105 c20 -95 18
-115 -23 -219 l-38 -94 -8 39 c-11 50 -2 283 14 354 l12 55 15 -35 c8 -19 20
-64 28 -100z m-251 8 c24 -82 20 -101 -37 -177 -29 -39 -56 -70 -60 -70 -5 -1
-8 40 -8 89 0 91 10 124 58 197 19 30 28 22 47 -39z m-3086 -6 c54 -27 55 -29
103 -135 26 -60 48 -110 48 -112 0 -2 -33 8 -72 21 -40 13 -93 30 -118 36
l-45 13 -16 70 c-9 39 -19 87 -22 109 l-6 38 37 -6 c20 -4 61 -19 91 -34z
m412 -40 c0 -37 6 -104 13 -150 l12 -83 -43 -85 c-24 -47 -43 -94 -43 -105 0
-36 -17 -18 -79 86 l-64 105 23 62 c12 35 35 86 51 114 34 61 105 137 119 129
6 -3 10 -36 11 -73z m2191 47 c23 -12 53 -42 78 -79 47 -69 60 -98 40 -85 -7
4 -43 18 -79 30 -63 21 -67 25 -93 76 -35 68 -37 93 -5 83 12 -3 39 -15 59
-25z m233 -31 c19 -67 34 -288 19 -288 -5 1 -24 31 -42 68 l-33 67 11 90 c5
50 10 98 10 108 0 37 18 14 35 -45z m-4215 -34 l32 -66 -27 -27 c-14 -16 -37
-54 -50 -86 -23 -57 -23 -57 -38 -34 -8 13 -30 54 -47 90 l-33 66 19 38 c10
21 33 53 52 72 41 41 47 38 92 -53z m129 39 c6 -21 11 -60 11 -88 -1 -42 -6
-56 -34 -88 l-34 -38 -7 43 c-4 24 -15 64 -25 90 l-18 48 39 35 c22 19 43 35
49 35 5 0 14 -17 19 -37z m4211 -128 c0 -52 -2 -95 -5 -95 -3 0 -20 17 -40 38
-27 29 -35 45 -35 77 0 22 -4 54 -9 72 -7 24 -5 37 7 54 l15 22 34 -36 c33
-36 33 -38 33 -132z m690 140 c0 -7 -333 -316 -337 -312 -5 6 55 167 72 193
26 40 265 148 265 119z m-4518 -48 l47 -11 -6 -45 c-3 -26 -1 -63 5 -84 6 -20
7 -37 4 -37 -4 0 -34 38 -67 85 -33 47 -61 85 -62 85 -10 0 4 -28 52 -105 31
-48 54 -89 53 -90 -2 -2 -21 -5 -43 -7 l-40 -3 -13 60 c-7 33 -14 86 -16 118
-4 56 -3 59 18 52 11 -4 42 -12 68 -18z m475 -13 l61 -7 0 -136 c0 -143 21
-277 61 -394 l20 -58 -22 7 c-34 10 -95 42 -170 88 -59 36 -72 49 -97 101 -37
75 -50 142 -50 259 0 116 5 134 39 139 45 7 96 7 158 1z m-211 -151 c0 -126 3
-157 20 -205 12 -32 18 -58 14 -58 -4 0 -52 43 -108 95 -82 78 -103 104 -116
143 -15 47 -21 94 -18 145 l2 27 103 0 104 0 -1 -147z m363 112 c70 -33 119
-73 169 -138 41 -53 41 -53 35 -122 -3 -45 1 -104 11 -163 l16 -94 -32 -41
c-17 -23 -34 -45 -37 -49 -4 -4 -37 2 -74 13 l-67 20 -30 97 c-39 125 -56 227
-65 380 -9 140 -11 136 74 97z m-1344 -21 c13 -3 35 -36 62 -92 23 -47 41 -88
39 -89 -2 -2 -29 3 -62 12 -32 8 -66 15 -77 15 -21 0 -45 50 -54 115 l-6 45
39 0 c22 0 48 -3 59 -6z m562 -49 l21 -43 -22 -21 c-12 -12 -25 -21 -29 -21
-4 0 -7 29 -7 65 0 36 3 65 8 65 4 -1 17 -21 29 -45z m3715 18 c55 -25 62 -31
94 -95 19 -37 32 -68 28 -68 -18 0 -161 120 -194 163 -19 24 -19 27 -4 27 9 0
43 -12 76 -27z m402 0 c-18 -82 -90 -243 -115 -259 -9 -5 -10 -2 -6 10 4 10 7
43 7 75 0 53 4 62 53 129 28 39 55 71 60 72 4 0 5 -12 1 -27z m-4425 -56 c12
-72 13 -153 3 -212 l-8 -40 -48 72 c-44 65 -47 75 -41 112 7 41 58 131 74 131
5 0 14 -28 20 -63z m258 -56 c-5 -2 -16 3 -24 11 -12 13 -12 20 4 53 l18 38 5
-49 c3 -27 1 -51 -3 -53z m4903 84 c0 -45 -34 -95 -83 -124 -29 -17 -74 -47
-102 -68 -37 -29 -47 -33 -41 -18 4 11 15 55 23 98 18 88 17 88 128 112 78 17
75 17 75 0z m183 -2 c5 -3 -35 -20 -89 -39 -54 -18 -100 -31 -101 -30 -2 1 5
22 14 45 l17 43 75 -6 c41 -4 79 -10 84 -13z m-5257 -30 c-10 -56 -48 -183
-55 -183 -3 0 -6 31 -5 69 1 51 7 78 24 110 29 51 44 53 36 4z m4171 -12 c31
-37 32 -39 26 -109 -3 -40 -9 -72 -12 -72 -3 0 -18 29 -34 63 -26 58 -38 158
-19 156 4 0 21 -18 39 -38z m-2911 8 c133 -41 153 -56 217 -165 32 -53 56 -99
53 -101 -2 -2 -46 5 -97 15 l-94 19 -55 95 c-30 52 -65 109 -78 126 -13 18
-21 32 -19 32 3 0 36 -10 73 -21z m4024 14 c0 -4 -13 -21 -29 -38 -16 -16 -55
-73 -86 -125 -32 -52 -59 -96 -60 -98 -2 -2 -28 4 -60 13 -31 9 -88 17 -127
18 l-70 1 34 28 c18 16 60 47 93 69 56 39 63 41 115 36 30 -3 64 -8 75 -12 16
-6 17 -5 5 4 -8 6 -37 14 -64 17 l-49 7 29 15 c29 16 172 70 187 71 4 1 7 -2
7 -6z m-5010 -50 c11 -15 19 -31 16 -37 -3 -6 -20 -48 -39 -94 -38 -92 -43
-90 -52 20 -5 63 -3 78 14 106 25 39 33 40 61 5z m4570 -84 c-20 -82 -20 -83
-118 -183 l-97 -101 -3 80 c-2 44 0 90 3 102 14 57 225 238 233 200 2 -8 -6
-52 -18 -98z m-4684 63 c17 -14 23 -34 29 -96 7 -74 6 -78 -12 -71 -10 4 -33
13 -50 19 -18 7 -35 15 -39 19 -8 7 34 147 44 147 4 -1 17 -9 28 -18z m290
-29 c9 -16 58 -67 107 -115 l89 -88 -37 0 c-20 0 -70 -11 -111 -25 -41 -14
-76 -25 -78 -25 -10 0 -96 245 -96 272 0 4 24 8 54 8 48 0 56 -3 72 -27z
m-776 7 c85 -19 113 -38 158 -107 24 -36 41 -68 38 -71 -13 -13 -163 74 -208
120 -67 69 -66 75 12 58z m2078 -177 c23 -49 24 -49 -73 -23 -47 12 -69 23
-67 32 2 7 19 47 39 88 l35 75 23 -65 c12 -36 31 -84 43 -107z m-1438 103 c0
-5 -7 -3 -15 4 -8 7 -12 17 -9 22 7 10 24 -9 24 -26z m975 -64 c28 -53 50
-100 50 -104 0 -10 -77 -60 -83 -54 -20 20 -42 256 -24 256 4 0 30 -44 57 -98z
m2890 -37 c5 -25 4 -36 -2 -30 -15 16 -53 124 -52 148 1 30 45 -66 54 -118z
m-3868 62 c12 -17 33 -60 47 -95 24 -61 25 -64 10 -138 -7 -42 -14 -77 -14
-79 0 -1 -8 -5 -19 -8 -13 -3 -24 5 -36 25 -9 16 -31 45 -47 64 l-30 34 11 75
c11 73 37 155 50 155 3 0 16 -15 28 -33z m-141 -48 c18 -11 34 -25 37 -32 2
-6 2 -51 -1 -98 l-4 -87 -48 30 c-40 25 -50 37 -59 73 -6 24 -11 69 -11 99 l0
56 27 -11 c15 -6 42 -19 59 -30z m4872 -4 c29 -9 52 -19 52 -24 0 -17 -58 -88
-110 -134 -41 -37 -59 -47 -74 -42 -70 21 -110 26 -178 22 -43 -3 -78 -2 -78
1 0 4 42 48 92 99 l93 93 75 0 c42 0 100 -7 128 -15z m529 -55 l31 -69 -56
-31 c-30 -16 -57 -28 -59 -27 -2 2 6 39 17 83 11 43 20 87 20 97 0 33 15 16
47 -53z m-84 -33 c-14 -48 -29 -87 -32 -87 -3 1 -15 21 -27 45 l-21 45 51 44
c28 24 52 43 54 41 1 -1 -10 -41 -25 -88z m-4050 63 c15 -5 11 -9 -22 -22 -39
-16 -42 -15 -51 2 -17 32 -12 40 23 33 17 -3 40 -9 50 -13z m3175 -75 c-5 -77
-9 -88 -39 -127 -32 -40 -34 -41 -37 -19 -7 45 51 231 72 231 5 0 7 -37 4 -85z
m-2900 39 c28 -8 52 -19 52 -24 0 -16 -52 -71 -83 -87 -48 -24 -120 -20 -166
10 -38 25 -89 93 -78 104 10 9 118 19 172 15 28 -2 74 -10 103 -18z m-991 -34
c23 -17 83 -53 134 -79 l92 -49 -73 -37 c-69 -35 -75 -36 -87 -19 -7 9 -16 32
-19 51 -3 18 -10 33 -15 33 -11 0 -55 -70 -80 -127 -22 -53 -31 -51 -110 30
-45 45 -129 157 -129 171 0 6 79 36 122 46 74 18 122 12 165 -20z m723 -10
c25 -50 81 -88 141 -96 60 -8 124 20 169 74 l34 40 38 -51 c21 -28 38 -54 38
-58 0 -3 -38 -25 -83 -49 -70 -35 -93 -42 -143 -42 -80 0 -135 24 -187 82 -41
45 -72 113 -61 132 12 19 35 5 54 -32z m-51 -35 c45 -107 160 -175 275 -161
54 7 137 41 186 76 27 19 27 19 46 -2 25 -27 168 -138 216 -167 l38 -23 -26
-33 c-48 -64 -66 -167 -44 -261 9 -39 6 -49 -46 -160 -31 -64 -78 -172 -105
-238 l-48 -121 -74 -6 c-101 -9 -186 -50 -259 -127 -95 -99 -131 -195 -143
-375 -5 -79 -3 -106 11 -142 9 -25 14 -48 11 -52 -11 -11 -148 109 -199 174
l-49 61 26 38 c31 46 34 110 5 146 -24 31 -70 51 -102 45 -18 -3 -16 -5 9 -6
44 -1 92 -46 99 -91 5 -36 -24 -100 -46 -100 -5 0 -26 32 -45 70 -33 65 -34
70 -15 70 29 0 54 -44 46 -81 -3 -18 -2 -28 4 -24 6 3 10 22 10 41 0 38 -25
70 -63 79 -19 5 -27 18 -41 73 -16 63 -37 213 -30 220 1 2 28 -2 60 -8 69 -15
156 -6 230 21 59 22 152 101 190 160 56 89 78 221 53 314 -41 153 -211 266
-402 266 l-77 0 6 27 c12 51 92 207 130 251 33 38 116 101 134 101 4 0 17 -25
29 -55z m4030 -4 c11 -27 21 -57 21 -65 0 -18 -79 -227 -90 -240 -5 -4 -22 21
-38 56 -17 35 -47 81 -67 103 -41 45 -38 36 17 -49 21 -32 45 -82 54 -111 16
-49 16 -53 -5 -93 -12 -23 -23 -42 -25 -42 -1 0 -3 13 -3 29 0 16 -7 41 -17
55 -20 32 -67 35 -103 6 l-25 -19 -38 32 -39 32 27 49 c15 28 52 77 82 110 54
59 209 196 221 196 4 0 16 -22 28 -49z m-5614 -8 c3 -15 16 -40 28 -57 17 -24
18 -29 4 -23 -9 3 -40 9 -68 13 -43 6 -54 12 -70 38 -30 50 -26 56 40 56 56 0
59 -2 66 -27z m-127 -15 c6 -17 10 -33 9 -35 -4 -3 -159 15 -163 20 -4 4 115
46 131 46 6 1 16 -13 23 -31z m212 12 c21 -11 41 -28 44 -37 3 -10 18 -31 32
-46 14 -16 24 -30 22 -32 -8 -8 -102 25 -121 43 -10 9 -28 34 -38 55 -19 37
-19 37 1 37 12 0 38 -9 60 -20z m533 -25 c15 -25 27 -48 27 -50 0 -9 -80 -58
-86 -53 -6 7 17 148 25 148 3 0 18 -20 34 -45z m5207 -17 c12 -28 23 -71 24
-95 l1 -43 -80 -33 c-44 -18 -104 -47 -133 -65 -29 -17 -54 -32 -56 -32 -4 0
71 215 83 240 9 17 109 80 127 80 6 0 22 -23 34 -52z m-1828 -21 c14 -34 30
-76 34 -92 7 -28 6 -28 -49 20 -32 27 -57 52 -57 57 0 12 33 78 39 78 3 0 18
-28 33 -63z m57 13 c44 -32 44 -34 19 -100 l-10 -25 -13 36 c-7 19 -22 54 -34
77 -12 23 -17 42 -13 42 5 0 28 -14 51 -30z m-3682 -21 c20 -17 37 -47 52 -95
12 -38 25 -76 28 -84 4 -11 -1 -9 -16 4 -19 18 -121 194 -121 210 0 9 20 -3
57 -35z m103 -24 c40 -64 41 -68 38 -143 l-3 -77 -31 65 c-27 57 -38 93 -60
198 -8 40 13 23 56 -43z m4575 51 l50 -13 -57 -26 c-60 -28 -245 -70 -284 -65
-21 3 -20 5 17 47 59 66 156 86 274 57z m-4822 -60 c48 -39 57 -57 17 -36 -31
17 -100 80 -100 92 0 11 7 6 83 -56z m-377 37 c11 -4 8 -10 -10 -24 -13 -10
-27 -19 -30 -19 -3 0 -27 14 -53 31 l-48 31 63 -7 c35 -3 70 -9 78 -12z m122
-24 c63 -16 70 -24 34 -43 -17 -9 -41 -29 -54 -46 l-24 -31 -58 44 -57 45 27
21 c30 24 64 26 132 10z m1330 -68 c-18 -14 -58 -49 -89 -79 -56 -53 -57 -53
-114 -50 l-56 3 -24 58 -23 58 89 44 89 43 80 -26 80 -26 -32 -25z m-622 0
c-20 -37 -29 -38 -67 -6 l-30 24 38 25 c36 23 39 23 56 6 18 -16 18 -19 3 -49z
m297 -21 c72 -172 79 -249 38 -385 -23 -75 -29 -223 -12 -268 11 -29 7 -37
-18 -30 -16 4 -19 21 -24 131 -6 124 -30 289 -43 301 -4 3 -4 -7 -1 -24 4 -16
9 -100 12 -185 3 -85 8 -170 10 -187 3 -31 2 -33 -26 -33 -16 0 -29 4 -29 9 0
35 -43 325 -54 362 -14 48 -8 127 15 213 14 54 75 186 86 186 4 0 25 -41 46
-90z m3021 12 c36 -38 50 -61 56 -94 10 -51 5 -60 -15 -31 -8 12 -44 44 -80
73 -36 28 -65 56 -65 60 0 5 4 20 10 35 12 32 26 26 94 -43z m147 21 c53 -85
56 -111 23 -192 -16 -39 -32 -71 -35 -71 -17 0 -37 52 -51 129 -14 76 -14 89
0 133 9 26 20 48 24 48 5 0 22 -21 39 -47z m-4015 11 l54 -16 -25 -30 c-14
-17 -33 -44 -41 -60 -14 -26 -18 -28 -52 -22 -46 8 -122 40 -122 51 0 11 58
67 85 81 27 15 38 15 101 -4z m3564 -19 c-3 -16 -5 -79 -5 -140 1 -118 21
-205 70 -292 l23 -42 -87 5 c-47 3 -91 7 -97 9 -16 5 -34 115 -34 204 0 76 22
204 46 259 12 30 17 33 51 30 36 -3 38 -4 33 -33z m-105 -5 c-41 -79 -59 -285
-34 -400 6 -28 9 -54 6 -56 -6 -6 -249 -34 -299 -34 -34 0 -38 3 -48 38 -6 20
-13 78 -16 127 l-6 90 62 68 c35 38 89 86 122 108 62 42 168 88 206 89 22 0
22 -1 7 -30z m260 -5 l54 -26 -15 -34 c-21 -52 -17 -141 10 -207 29 -70 85
-150 213 -298 113 -133 233 -290 232 -305 0 -10 -89 -80 -93 -73 -26 44 -84
109 -195 219 -161 161 -234 241 -263 289 -61 101 -95 267 -83 396 l7 76 40 -5
c21 -3 63 -17 93 -32z m-3238 -27 c89 -68 154 -167 192 -293 19 -65 65 -374
56 -383 -8 -9 -23 9 -30 35 -3 16 -23 57 -43 93 -20 36 -37 78 -39 93 -3 32
-64 189 -70 183 -3 -2 7 -41 22 -86 14 -46 24 -84 23 -86 -2 -1 -36 29 -76 68
-68 66 -74 76 -92 142 -23 90 -33 184 -24 241 7 50 5 50 81 -7z m-283 -18 c10
-10 -80 -39 -146 -47 -53 -6 -57 -1 -30 40 35 53 50 57 112 35 30 -11 59 -24
64 -28z m434 13 c26 -20 51 -40 55 -44 9 -7 -33 -101 -44 -97 -4 2 -27 30 -51
63 -43 58 -44 61 -29 87 9 16 17 28 19 28 2 0 25 -17 50 -37z m511 -85 c-41
-125 -58 -217 -71 -394 l-11 -161 -34 -37 c-29 -31 -37 -35 -54 -25 -14 7 -18
16 -14 27 50 122 120 350 112 359 -2 1 -25 -53 -50 -122 -75 -197 -99 -246
-117 -235 -11 7 -16 36 -18 120 -4 97 -1 120 22 193 14 46 44 112 67 147 38
60 174 210 189 210 3 0 -6 -37 -21 -82z m4591 55 c-1 -41 -18 -110 -41 -170
-19 -47 -25 -53 -58 -59 -20 -3 -50 -9 -68 -14 -38 -10 -43 -6 -43 32 0 15 -9
37 -20 48 -21 21 -42 18 -73 -8 -26 -22 -29 -10 -7 26 25 41 112 97 215 139
44 18 83 33 88 33 4 0 7 -12 7 -27z m-1890 -29 c139 -130 274 -376 360 -654
31 -99 34 -136 9 -88 -19 37 -95 133 -209 268 -184 216 -231 291 -245 391 -7
48 9 129 26 129 5 0 32 -21 59 -46z m2201 -101 c-31 -59 -40 -72 -41 -52 0 14
-3 46 -6 70 l-6 44 43 15 c24 9 45 12 47 9 2 -4 -15 -43 -37 -86z m-3791 72
c11 -13 9 -19 -8 -38 -32 -34 -52 -91 -52 -150 0 -30 -6 -62 -14 -73 -15 -20
-15 -21 -31 58 -6 34 22 137 48 177 30 45 38 49 57 26z m2709 -19 c15 -8 40
-33 55 -55 l28 -40 -25 -78 c-37 -115 -39 -127 -46 -263 l-6 -125 -39 102
c-22 57 -41 101 -43 100 -4 -5 39 -128 77 -220 33 -79 36 -117 4 -55 -22 42
-130 207 -154 233 -62 68 -120 227 -120 328 0 56 14 66 59 43 45 -24 73 -20
103 14 29 34 63 38 107 16z m-2688 -87 c-28 -39 -52 -76 -54 -82 -2 -7 -7 -9
-11 -6 -14 13 16 107 45 142 25 31 34 35 50 27 18 -10 16 -15 -30 -81z m3709
11 c0 -38 -5 -81 -10 -96 -13 -32 -92 -143 -102 -144 -5 0 -8 24 -8 53 0 30
-9 89 -20 132 -11 44 -17 82 -13 86 12 11 137 47 146 42 4 -2 7 -35 7 -73z
m-1915 -57 c-4 -29 -10 -53 -14 -53 -4 0 -16 15 -25 33 -18 32 -17 33 10 92
l28 60 4 -40 c2 -22 1 -64 -3 -92z m1081 105 c10 -12 15 -19 9 -16 -5 3 -18 8
-28 11 -10 4 -15 11 -12 17 8 13 9 13 31 -12z m933 -40 c-6 -26 -17 -49 -26
-52 -24 -10 -24 -4 4 52 14 29 27 51 29 50 1 -2 -2 -24 -7 -50z m-5089 37 c0
-8 -52 -86 -55 -83 -6 7 -12 78 -7 82 7 7 62 8 62 1z m423 -38 c170 -84 241
-230 191 -398 -33 -112 -116 -208 -222 -257 -95 -43 -282 -43 -290 2 -3 14 1
16 25 9 95 -27 222 13 288 90 132 153 123 349 -19 447 -55 37 -153 70 -211 70
-48 0 -52 7 -38 59 6 23 8 23 103 19 88 -3 104 -7 173 -41z m-742 -14 c-9 -16
-10 -16 -11 -1 0 9 3 25 7 35 7 16 8 17 11 1 2 -10 -1 -25 -7 -35z m1811 14
c123 -37 242 -50 391 -45 100 4 130 2 134 -8 3 -7 -11 -39 -30 -71 -19 -32
-45 -78 -57 -102 l-21 -43 -45 7 c-65 9 -54 -9 19 -31 83 -24 251 -24 473 0
137 15 184 16 233 8 57 -10 131 -44 131 -60 0 -4 -17 -16 -37 -27 -20 -11 -39
-26 -41 -33 -2 -8 8 -5 30 8 55 33 98 22 98 -26 0 -20 -34 -49 -95 -83 -36
-19 7 -12 54 9 24 11 45 19 47 17 11 -11 -46 -94 -84 -123 -129 -98 -319 -148
-478 -124 -142 21 -266 83 -376 188 -57 54 -85 65 -55 22 13 -19 13 -28 3 -59
-7 -20 -21 -79 -30 -131 -10 -52 -19 -105 -22 -116 -3 -18 -15 -24 -71 -34
-135 -23 -234 -97 -268 -200 -21 -64 -21 -192 1 -256 38 -114 134 -267 236
-379 28 -31 49 -58 46 -60 -16 -17 -146 -39 -228 -39 -277 1 -487 166 -546
431 -26 116 -15 301 25 457 68 260 315 800 419 919 18 21 21 20 144 -16z
m2828 14 c5 -11 10 -37 10 -58 0 -67 -71 -363 -146 -610 -20 -65 -29 -83 -44
-83 -10 0 -21 7 -24 16 -14 36 -4 162 25 319 16 92 28 169 26 171 -10 10 -77
-367 -77 -434 0 -52 -3 -73 -12 -70 -29 10 -78 227 -78 343 0 133 56 351 102
391 19 18 21 18 50 1 39 -22 47 -22 83 8 36 29 71 32 85 6z m-5053 -53 c210
-119 359 -276 422 -441 10 -25 8 -29 -14 -39 -22 -10 -27 -8 -47 18 -41 53
-112 125 -183 188 l-70 61 69 -75 c38 -41 94 -108 124 -147 l54 -73 -23 -19
c-23 -19 -24 -19 -72 0 -180 71 -287 234 -361 553 -8 35 -3 33 101 -26z m5569
-25 c18 -81 24 -216 11 -230 -12 -11 -27 18 -27 55 0 19 -8 40 -21 53 -18 18
-29 21 -75 16 -36 -4 -54 -2 -57 6 -2 7 11 39 29 72 31 57 81 105 110 105 8 0
19 -30 30 -77z m-340 39 c6 -4 14 -25 18 -47 12 -62 23 -77 59 -75 48 3 54 1
61 -16 9 -24 -2 -37 -89 -101 -95 -72 -206 -184 -264 -270 -23 -35 -44 -63
-46 -63 -11 0 68 143 128 233 36 53 60 94 56 91 -17 -10 -93 -118 -137 -194
-24 -41 -41 -64 -37 -50 3 14 26 102 49 195 l43 170 64 68 c64 67 74 73 95 59z
m-903 -91 c135 -127 310 -360 415 -552 40 -73 47 -107 13 -70 -20 22 -371 327
-415 360 -38 29 19 -27 234 -228 91 -85 166 -158 168 -163 2 -4 -7 -13 -20
-18 -20 -10 -40 -2 -153 61 -148 82 -258 153 -329 213 -105 89 -206 246 -192
301 6 25 10 27 39 20 79 -19 82 -17 85 55 2 50 7 69 22 82 29 24 55 13 133
-61z m-3293 34 c120 -41 196 -143 188 -253 -8 -110 -74 -214 -170 -268 -46
-25 -63 -29 -130 -29 -42 0 -80 4 -84 8 -12 12 -8 350 6 447 18 138 12 128 83
118 34 -4 82 -15 107 -23z m1764 -152 l8 -43 -71 0 c-46 0 -71 4 -71 11 0 12
46 96 89 164 l26 40 6 -65 c3 -36 9 -84 13 -107z m3005 150 c0 -10 -10 -51
-22 -92 -21 -70 -24 -75 -52 -78 -16 -1 -45 -5 -62 -7 -32 -5 -44 6 -23 19 6
4 33 40 60 80 59 87 101 120 99 78z m-409 -22 c0 -18 -26 -27 -65 -21 l-40 6
30 8 c17 4 35 9 40 11 20 7 35 5 35 -4z m118 -97 c16 -11 22 -25 22 -53 0 -40
14 -58 62 -79 47 -20 51 -44 17 -95 -74 -112 -289 -250 -557 -358 -71 -28 -85
-31 -92 -19 -14 22 -14 24 35 83 47 58 254 237 334 290 25 16 37 27 26 23 -77
-26 -312 -208 -383 -296 -25 -32 -50 -56 -54 -54 -10 6 7 42 60 133 101 175
249 320 417 413 57 32 81 34 113 12z m-5576 -17 c21 -33 6 -38 -39 -11 -64 36
-65 38 -13 30 24 -4 48 -12 52 -19z m-5 -53 c-7 -8 -97 35 -97 46 0 6 23 -1
51 -16 28 -14 49 -27 46 -30z m-162 27 c44 -11 109 -33 145 -49 52 -23 69 -37
88 -70 52 -93 152 -182 245 -217 31 -12 44 -22 38 -28 -6 -6 -30 3 -68 26 -66
39 -263 139 -263 133 0 -2 26 -19 58 -36 104 -59 242 -152 242 -164 -1 -36
-17 -37 -76 -2 -70 42 -153 72 -239 87 -52 9 -72 18 -117 57 -85 73 -157 162
-202 250 l-17 32 43 0 c24 0 79 -9 123 -19z m5964 -73 c-28 -72 -58 -118 -76
-118 -11 0 -13 5 -8 18 23 53 13 77 -41 108 -16 10 -13 13 26 27 25 8 62 16
82 16 l38 1 -21 -52z m-1699 32 c0 -5 -7 -10 -16 -10 -8 0 -12 5 -9 10 3 6 10
10 16 10 5 0 9 -4 9 -10z m-18 -36 c31 -5 43 -15 69 -55 47 -73 184 -197 292
-263 53 -33 95 -61 93 -63 -7 -7 -142 48 -236 97 -52 28 -84 41 -70 30 14 -11
76 -46 137 -77 62 -31 111 -58 109 -60 -2 -2 -24 1 -50 7 -26 6 -88 13 -139
17 -51 3 -104 12 -119 19 -15 8 -42 14 -60 14 -33 0 -34 0 -64 93 -22 67 -28
97 -21 109 8 11 5 25 -11 52 -27 45 -28 62 -4 75 20 12 26 13 74 5z m-334
-240 c62 -58 126 -126 142 -150 l30 -43 -21 -63 c-18 -53 -20 -78 -16 -163 3
-55 9 -113 13 -129 l7 -28 -62 42 c-33 23 -61 48 -61 56 0 29 -50 136 -94 202
-24 37 -72 97 -105 134 -64 69 -70 82 -46 92 23 9 75 97 75 128 0 16 5 28 13
28 7 0 63 -48 125 -106z m1984 46 c25 -25 29 -37 28 -73 -4 -64 -3 -65 50 -92
59 -30 64 -52 20 -89 -41 -34 -83 -40 -214 -30 -61 5 -172 8 -246 8 -128 -1
-133 -1 -100 13 19 9 103 32 185 54 83 21 146 38 140 38 -25 2 -205 -30 -250
-43 -27 -8 -51 -13 -53 -11 -2 2 27 19 65 39 88 44 239 145 277 185 37 39 60
39 98 1z m-5874 8 c20 -20 14 -24 -30 -20 -41 4 -41 5 -17 18 30 17 32 17 47
2z m865 -25 c29 -9 68 -33 99 -62 51 -47 52 -48 56 -116 4 -65 4 -68 -12 -52
-10 9 -15 21 -12 26 8 13 -22 41 -42 40 -12 0 -11 -3 6 -9 23 -10 31 -40 10
-40 -7 0 -4 -6 7 -12 31 -18 35 -31 19 -56 -12 -18 -13 -27 -5 -35 14 -14 14
-54 1 -60 -6 -3 -5 -4 2 -3 8 2 13 19 13 47 0 77 17 82 32 9 27 -137 28 -131
-9 -185 -141 -210 -439 -183 -554 51 -51 105 -42 225 27 334 85 135 200 174
362 123z m137 -19 c-10 -19 -16 -21 -27 -12 -11 9 -10 15 9 35 26 28 37 14 18
-23z m-1042 -1 c-10 -2 -28 -2 -40 0 -13 2 -5 4 17 4 22 1 32 -1 23 -4z m2838
-109 c13 -28 54 -86 91 -129 146 -167 165 -192 196 -250 30 -57 32 -66 32
-165 -1 -106 -20 -182 -59 -236 -15 -19 -15 -19 -30 1 -29 38 -56 124 -66 217
-16 136 -29 197 -56 249 -36 72 -79 102 -176 123 -23 5 -28 12 -28 36 0 29 22
143 42 215 10 39 11 39 21 15 5 -14 20 -48 33 -76z m-2561 52 c87 -30 195 -90
195 -109 0 -7 -4 -19 -9 -27 -8 -12 -36 -11 -207 8 -108 13 -198 21 -200 20
-1 -2 87 -19 197 -38 200 -34 200 -34 197 -59 -5 -41 -93 -65 -243 -65 -137
-1 -202 16 -335 85 -78 40 -210 134 -210 149 0 7 173 52 245 64 17 2 89 3 160
2 111 -3 142 -7 210 -30z m2723 -90 c28 -14 52 -31 52 -36 0 -5 59 -58 131
-116 214 -175 284 -292 296 -494 6 -115 -11 -199 -61 -297 -44 -88 -113 -173
-140 -173 -11 0 -58 19 -104 41 -63 32 -82 46 -78 58 2 9 12 36 21 61 14 37
15 53 6 95 -6 28 -15 56 -19 63 -5 7 5 39 24 78 95 196 64 363 -103 544 -111
122 -148 168 -177 226 -14 29 -26 55 -26 58 0 4 28 -13 63 -37 34 -25 86 -56
115 -71z m768 -49 c80 -95 131 -177 159 -257 14 -39 14 -42 -3 -35 -9 4 -45
12 -80 18 -60 11 -64 13 -89 57 -39 68 -89 129 -156 191 l-60 56 64 35 c35 20
68 35 74 33 5 -1 46 -45 91 -98z m569 59 c19 -8 44 -30 55 -48 30 -47 23 -158
-20 -302 -37 -127 -88 -266 -103 -281 -9 -10 -4 217 8 325 l5 45 -15 -45 c-20
-58 -33 -146 -37 -237 -2 -40 -6 -72 -9 -70 -20 7 -86 111 -106 166 -69 187
-23 386 101 442 50 22 76 23 121 5z m319 -47 c113 -23 286 -76 286 -88 0 -4
-73 -11 -162 -15 -273 -13 -316 -22 -75 -18 141 3 227 1 227 -5 0 -24 -32 -45
-120 -76 -52 -19 -117 -38 -145 -42 -27 -4 -72 -15 -100 -26 -70 -26 -165 -40
-165 -24 0 7 9 47 19 90 22 86 20 158 -5 207 l-16 31 78 -7 c44 -4 123 -16
178 -27z m-2734 7 c0 -46 -18 -63 -72 -70 -175 -22 -279 -127 -311 -310 -10
-58 -15 -70 -39 -82 -27 -14 -28 -14 -28 14 0 160 100 335 232 407 86 47 218
71 218 41z m1680 -73 c33 -30 83 -90 111 -132 l50 -76 -33 -8 c-132 -34 -200
-100 -200 -192 0 -116 110 -205 254 -205 l50 0 -7 -42 c-5 -31 -18 -55 -45
-83 -51 -52 -79 -117 -80 -180 -1 -76 -19 -93 -120 -111 -80 -14 -214 -13
-254 2 -11 4 -4 19 31 62 165 203 185 487 51 709 -36 59 -129 152 -251 251
-43 35 -77 66 -74 68 3 3 25 0 48 -7 59 -17 261 -15 324 4 60 17 65 15 145
-60z m1540 32 c38 -20 60 -63 60 -117 0 -122 -132 -178 -217 -93 -27 27 -33
41 -33 75 0 113 98 183 190 135z m582 -45 c154 -18 311 -81 336 -134 15 -34
-2 -66 -37 -66 -37 0 -46 -13 -46 -70 0 -37 -4 -46 -25 -57 -48 -26 -127 -3
-342 98 -175 83 -244 108 -320 116 -52 5 -58 8 -58 29 0 23 2 24 63 18 160
-13 261 -28 366 -55 63 -16 116 -27 118 -25 5 5 -199 65 -277 81 -41 9 -119
19 -172 22 -54 3 -98 10 -98 15 0 4 8 8 18 9 9 0 67 6 127 13 139 17 236 19
347 6z m-3836 -22 c-3 -13 -13 -58 -22 -100 l-17 -77 -42 6 c-23 3 -51 0 -62
-6 -32 -16 -53 -73 -53 -140 0 -34 -1 -61 -3 -61 -1 0 -20 9 -42 20 -22 11
-54 20 -72 20 -31 0 -32 1 -27 33 37 208 145 321 313 326 30 1 33 -1 27 -21z
m-2191 -32 c29 -19 94 -105 95 -124 0 -7 -28 -49 -61 -93 -34 -44 -58 -83 -54
-87 3 -4 52 -9 107 -10 l100 -4 35 -75 c19 -41 32 -77 29 -80 -7 -7 -66 37
-125 91 -39 36 -42 37 -23 10 11 -16 41 -49 66 -72 52 -48 50 -49 -25 -23
-212 73 -349 214 -349 359 0 42 20 111 33 112 1 0 19 6 41 14 43 15 91 8 131
-18z m755 -8 c0 -24 -29 -36 -235 -94 -120 -34 -69 -28 95 10 80 19 146 33
146 32 1 0 5 -15 8 -32 6 -29 5 -32 -24 -38 -45 -8 -151 -63 -209 -107 -47
-36 -55 -38 -166 -49 -114 -12 -328 -10 -341 3 -9 9 96 146 146 191 22 19 57
47 78 61 l40 26 83 -17 c103 -21 230 -15 309 14 71 26 70 26 70 0z m2343 -13
c51 -8 109 -62 137 -126 13 -32 27 -98 36 -171 18 -155 27 -187 81 -280 25
-43 47 -96 50 -117 8 -57 -27 -123 -84 -162 -41 -29 -50 -31 -103 -26 -94 8
-178 63 -265 173 -57 71 -60 74 -34 25 13 -24 56 -77 94 -116 56 -57 81 -76
125 -91 60 -20 46 -32 -18 -14 -93 25 -203 136 -320 324 -78 124 -105 210
-100 311 7 123 57 199 163 246 49 22 141 39 180 33 11 -2 37 -6 58 -9z m2138
-114 c-10 -14 -28 -34 -38 -43 -19 -17 -21 -17 -48 12 -16 16 -27 32 -24 34 2
2 27 15 54 29 45 23 51 24 62 10 10 -13 9 -21 -6 -42z m524 -79 c88 -63 265
-233 314 -301 48 -68 37 -117 -20 -85 -60 33 -100 9 -114 -68 -9 -47 -36 -72
-68 -64 -36 9 -137 87 -200 156 -73 78 -149 195 -187 287 -42 99 -47 128 -24
137 13 5 24 -2 42 -26 37 -49 262 -271 302 -298 19 -12 -19 33 -86 101 -67 68
-144 152 -173 187 -50 61 -50 63 -35 88 l17 24 76 -41 c42 -22 112 -66 156
-97z m-3 57 c54 -27 116 -70 192 -131 33 -26 65 -48 70 -48 6 0 -1 8 -14 17
-14 9 -54 42 -90 72 -36 31 -79 66 -95 78 -17 13 26 -3 95 -35 149 -70 202
-90 261 -100 34 -6 44 -12 44 -27 0 -12 -11 -25 -27 -33 -23 -11 -28 -20 -28
-51 0 -45 -14 -61 -53 -61 -25 0 -52 22 -151 118 -67 64 -157 141 -201 171
-44 30 -84 58 -90 63 -13 12 33 -5 87 -33z m-4958 -3 c17 -26 24 -18 -234
-246 -31 -28 0 -6 159 110 105 78 114 83 127 66 8 -11 11 -31 7 -50 -23 -126
-137 -241 -301 -303 -78 -29 -333 -96 -340 -89 -8 8 82 145 153 234 90 111
190 193 308 253 55 27 100 49 102 49 1 0 10 -11 19 -24z m4274 8 c51 -21 100
-71 112 -113 20 -74 -25 -151 -99 -170 -20 -5 -90 -12 -156 -16 -104 -5 -179
-16 -275 -40 l-25 -7 25 22 c14 12 60 48 103 81 43 32 71 59 63 59 -28 0 -112
-47 -171 -96 -49 -39 -56 -42 -50 -22 11 35 64 121 107 171 42 50 128 111 185
132 51 18 136 18 181 -1z m252 -24 c0 -3 -24 -43 -54 -89 l-53 -84 -5 49 c-3
27 -9 56 -13 66 -4 11 5 29 30 57 l37 41 29 -17 c16 -10 29 -20 29 -23z
m-3883 -10 c12 -33 8 -37 -20 -16 -10 8 -15 20 -11 30 9 24 18 20 31 -14z
m690 10 c9 0 11 -25 6 -97 -10 -171 26 -325 102 -439 l43 -64 -30 -25 c-29
-24 -69 -32 -103 -19 -25 10 -47 62 -40 95 10 43 -16 37 -51 -12 -15 -22 -46
-56 -68 -75 -49 -42 -87 -45 -121 -8 -53 57 -24 179 55 232 45 30 44 44 -3 54
-77 16 -132 61 -143 115 -9 45 30 83 85 83 52 0 78 -11 130 -54 23 -20 47 -34
51 -31 5 3 2 24 -6 47 -35 101 0 220 61 204 11 -3 25 -6 32 -6z m2115 -37 c83
-39 151 -102 217 -199 28 -41 49 -74 47 -74 -3 0 -31 16 -63 35 -57 34 -182
85 -206 85 -6 0 30 -23 82 -49 51 -27 97 -53 102 -58 15 -15 -317 -53 -377
-43 -178 30 -251 184 -134 282 54 46 94 58 185 55 66 -2 92 -8 147 -34z m1134
5 c-18 -86 -46 -292 -50 -368 l-5 -85 19 120 c32 203 63 365 70 365 12 0 20
-178 20 -470 0 -318 -3 -335 -54 -312 -17 7 -34 29 -46 57 l-19 44 -43 -24
c-52 -30 -89 -32 -113 -5 -17 19 -17 21 1 47 45 66 55 128 33 192 -13 35 5 96
103 344 41 105 53 127 70 127 18 0 20 -4 14 -32z m-663 -31 c-26 -25 -49 -44
-50 -43 -2 2 3 20 10 42 12 33 19 40 48 44 19 3 35 5 37 4 2 -1 -18 -22 -45
-47z m-3274 -5 c23 -16 57 -51 76 -79 18 -27 61 -79 95 -114 56 -58 103 -134
138 -224 20 -51 61 -199 57 -204 -3 -2 -33 6 -67 19 -136 48 -270 149 -353
264 -49 69 -111 194 -121 242 -5 27 -2 33 28 51 l33 19 49 -70 c56 -81 154
-199 169 -205 5 -2 -11 25 -36 60 -72 98 -157 227 -157 236 0 13 22 33 35 33
7 0 31 -13 54 -28z m-521 -48 c2 -1 -9 -28 -24 -60 -30 -68 -96 -256 -90 -261
2 -2 11 18 21 44 15 41 111 242 120 251 2 2 12 1 23 -2 19 -6 19 -9 -9 -59
-42 -76 -75 -188 -89 -302 -10 -87 -17 -107 -48 -155 -43 -66 -134 -157 -191
-188 l-41 -23 0 26 c0 59 23 222 41 293 30 118 61 176 128 238 60 56 105 128
117 192 6 28 9 31 23 20 9 -7 17 -13 19 -14z m-539 -84 c-35 -38 -65 -70 -67
-70 -5 0 7 94 14 115 6 14 31 21 87 24 27 1 26 -1 -34 -69z m-75 38 c-4 -13
-13 -50 -19 -83 -7 -34 -15 -54 -18 -45 -20 48 -37 106 -37 126 0 21 5 24 41
24 37 0 40 -2 33 -22z m991 -148 c10 -19 35 -60 56 -91 34 -50 38 -63 44 -145
10 -123 -21 -374 -45 -374 -17 0 -134 162 -174 241 -40 82 -42 90 -35 140 12
82 10 216 -4 296 l-13 72 29 7 c15 3 29 4 31 2 1 -1 12 -46 24 -98 25 -104 61
-223 61 -202 1 15 -58 282 -65 293 -2 4 4 12 13 18 16 8 21 1 39 -57 11 -37
29 -83 39 -102z m-270 128 c-15 -69 -25 -193 -24 -291 l2 -112 7 100 c4 55 15
149 25 208 18 106 18 108 44 105 34 -4 40 -39 42 -218 1 -140 -13 -236 -53
-355 -24 -73 -90 -207 -103 -207 -5 0 -17 21 -26 46 -77 193 -62 476 36 689
26 57 61 80 50 35z m4511 -84 c43 -70 86 -122 157 -190 83 -80 97 -98 97 -126
0 -47 -34 -78 -84 -78 -51 0 -65 -9 -75 -46 -12 -45 -39 -36 -93 31 -85 105
-88 116 -87 321 1 178 1 179 14 107 12 -66 56 -183 70 -183 3 0 -1 13 -9 28
-22 42 -65 232 -53 232 2 0 30 -43 63 -96z m-374 -39 c-21 -36 -41 -60 -46
-55 -8 8 62 120 76 120 4 0 -10 -29 -30 -65z m34 -20 c-17 -47 -34 -85 -38
-85 -4 0 -9 8 -13 19 -5 17 62 151 76 151 4 0 -8 -38 -25 -85z m-67 38 c-41
-54 -38 -53 -75 -36 -43 21 -43 33 -1 34 17 0 41 4 52 9 32 14 39 11 24 -7z
m-5039 -22 c128 -28 141 -32 134 -43 -10 -16 -73 -40 -139 -54 -39 -8 -49 -12
-30 -13 32 -1 137 21 169 34 16 7 16 4 -5 -34 -41 -73 -171 -162 -279 -191
-59 -16 -158 -14 -202 4 -78 33 -137 129 -124 201 8 42 59 97 107 113 50 17
256 7 369 -17z m4862 -2 c137 -28 244 -149 223 -252 -16 -76 -97 -147 -168
-147 -65 0 -155 56 -222 139 -26 31 -71 82 -102 114 -31 31 -52 57 -47 57 19
0 172 -40 228 -59 40 -14 55 -17 47 -7 -17 20 -121 64 -200 85 -39 9 -73 20
-76 23 -11 11 163 51 247 57 9 0 41 -4 70 -10z m-3101 -70 c7 -14 6 -19 -3
-19 -23 0 -58 30 -58 51 0 19 1 19 25 3 14 -9 30 -25 36 -35z m2639 18 c0 -8
-12 -20 -26 -28 -14 -7 -54 -47 -88 -89 -81 -99 -100 -128 -42 -63 52 58 160
143 182 143 8 0 -19 -49 -66 -120 -43 -66 -99 -162 -124 -214 -24 -51 -56
-103 -71 -115 -92 -71 -250 57 -232 189 12 92 88 182 204 243 105 55 263 87
263 54z m-240 -4 c0 -10 -102 -64 -108 -58 -12 12 10 54 31 58 39 7 77 7 77 0z
m-2458 -35 c29 -17 54 -32 55 -33 2 -1 -6 -19 -17 -40 -11 -22 -20 -47 -20
-57 0 -38 -16 -15 -45 65 -16 45 -31 85 -33 90 -6 13 7 8 60 -25z m102 11 c-8
-14 -24 -10 -24 6 0 9 6 12 15 9 8 -4 12 -10 9 -15z m-1240 -23 c-7 -18 -42
-30 -71 -24 -13 3 -5 10 27 25 51 23 53 23 44 -1z m3981 -48 c62 -69 100 -136
130 -231 44 -136 29 -208 -54 -264 -76 -51 -160 -38 -232 37 -58 59 -75 120
-58 203 12 60 119 281 130 270 8 -8 46 -141 68 -233 9 -40 10 -36 6 42 -2 55
-13 112 -28 157 -13 39 -20 71 -16 71 4 0 28 -24 54 -52z m-4005 -3 c-1 -30
-16 -34 -63 -17 -64 25 -64 28 3 27 33 0 60 -4 60 -10z m-71 -27 c52 -20 53
-21 46 -52 -17 -82 -35 -206 -35 -248 0 -27 -2 -48 -5 -48 -3 0 -23 9 -44 19
-77 40 -151 152 -195 297 -5 18 -2 23 19 28 20 5 35 0 63 -22 59 -46 93 -59
45 -17 -24 20 -43 40 -43 45 0 13 53 29 75 23 11 -3 44 -14 74 -25z m-241
-120 c29 -251 7 -350 -90 -399 -137 -70 -246 107 -175 281 38 92 108 191 139
197 41 8 42 7 41 -50 l-1 -52 8 54 c8 53 20 71 51 71 12 0 18 -21 27 -102z"/>
<path d="M2243 5761 c-185 -64 -217 -241 -78 -436 83 -116 179 -186 459 -332
99 -52 224 -123 276 -158 110 -72 230 -193 279 -278 18 -32 38 -56 45 -54 6 2
34 12 63 21 78 26 78 28 38 147 -108 312 -315 633 -563 870 -124 118 -230 192
-318 219 -81 24 -133 25 -201 1z m242 -50 c107 -50 241 -162 376 -316 198
-227 339 -468 438 -747 l30 -87 -56 -18 c-41 -13 -57 -15 -60 -6 -12 36 -91
142 -146 196 -82 80 -193 154 -398 263 -342 182 -450 268 -525 416 -57 113
-52 200 15 267 79 79 201 91 326 32z"/>
<path d="M3169 3511 c-16 -16 -29 -39 -29 -52 0 -21 1 -21 21 5 11 14 34 33
50 42 16 8 27 19 24 24 -11 18 -36 10 -66 -19z"/>
<path d="M4260 3500 c0 -6 12 -15 28 -21 15 -6 37 -20 50 -31 19 -19 22 -19
22 -4 0 24 -48 66 -76 66 -13 0 -24 -5 -24 -10z"/>
<path d="M4164 3348 c-63 -30 -56 -156 11 -186 74 -34 145 15 145 99 0 45 -57
99 -101 98 -19 0 -44 -5 -55 -11z m103 -64 c8 -21 -13 -42 -28 -27 -13 13 -5
43 11 43 6 0 13 -7 17 -16z"/>
<path d="M3225 3305 c-19 -18 -25 -35 -25 -67 0 -52 21 -85 64 -103 43 -18 81
-8 112 28 22 26 25 38 21 76 -7 61 -41 91 -103 91 -34 0 -51 -6 -69 -25z m120
-55 c0 -8 -8 -16 -17 -18 -13 -2 -18 3 -18 18 0 15 5 20 18 18 9 -2 17 -10 17
-18z"/>
<path d="M3685 3156 c-42 -18 -58 -41 -51 -70 9 -36 55 -87 93 -102 30 -13 31
-16 22 -44 -12 -33 -61 -79 -87 -81 -47 -4 -70 13 -89 64 l-11 32 -1 -31 c-2
-89 120 -118 183 -44 27 33 36 37 36 16 0 -23 59 -66 89 -66 38 0 77 33 91 76
7 19 10 38 7 40 -3 3 -10 -11 -17 -30 -12 -39 -43 -66 -73 -66 -28 0 -75 52
-82 92 -6 29 -3 40 18 60 28 28 67 99 67 122 0 42 -125 63 -195 32z m153 -25
c17 -11 -3 -61 -42 -108 -26 -31 -29 -32 -56 -18 -33 17 -80 71 -80 91 0 32
140 60 178 35z"/>
<path d="M3216 3039 c-50 -8 -106 -65 -106 -108 0 -64 62 -102 169 -104 68 -2
106 15 127 55 18 35 18 62 -1 98 -26 50 -104 75 -189 59z m132 -39 c43 -27 57
-62 37 -100 -8 -16 -25 -35 -37 -41 -27 -15 -146 -7 -176 12 -28 17 -38 53
-26 88 20 56 137 80 202 41z"/>
<path d="M4144 3036 c-104 -46 -77 -190 38 -203 116 -13 198 27 198 97 0 45
-30 87 -76 106 -42 18 -120 17 -160 0z m178 -37 c31 -23 42 -50 34 -85 -9 -36
-55 -54 -136 -54 -56 0 -74 4 -90 20 -69 69 5 159 120 144 24 -3 57 -15 72
-25z"/>
<path d="M1660 1957 c-13 -7 -26 -19 -28 -27 -4 -11 0 -11 16 3 26 24 63 18
78 -11 9 -19 13 -20 17 -8 9 24 42 19 55 -6 8 -17 11 -19 11 -6 1 25 -28 50
-51 43 -10 -4 -24 -2 -31 3 -23 17 -44 20 -67 9z"/>
<path d="M1627 1853 c-4 -3 -7 -14 -7 -23 0 -9 -9 -25 -20 -35 -31 -28 -20
-75 17 -75 8 0 5 8 -8 21 -16 16 -18 23 -8 35 6 8 20 14 31 14 17 0 18 3 8 15
-17 21 -4 48 20 42 11 -3 18 -1 14 4 -6 10 -38 12 -47 2z"/>
<path d="M1485 1840 c-3 -5 -1 -19 5 -30 8 -15 7 -26 -6 -44 -21 -33 -10 -66
21 -66 13 0 27 4 30 10 4 6 -4 9 -17 7 -35 -3 -38 39 -4 54 25 12 26 12 6 26
-27 19 -25 41 3 46 19 4 19 4 -5 6 -15 0 -30 -3 -33 -9z"/>
<path d="M1755 1799 c-4 -6 -4 -13 -1 -16 3 -4 6 -1 6 5 0 7 5 12 10 12 6 0
10 -6 10 -14 0 -9 8 -12 25 -8 27 5 32 -7 13 -26 -9 -9 -9 -12 0 -12 18 0 26
28 12 45 -6 7 -17 12 -25 9 -7 -3 -16 -1 -20 5 -8 14 -22 14 -30 0z"/>
<path d="M1841 1701 c18 -28 4 -54 -25 -47 -20 5 -23 3 -19 -14 3 -11 0 -27
-7 -35 -11 -14 -15 -14 -36 0 -21 14 -23 13 -26 -8 -4 -32 -45 -36 -58 -5 -7
17 -9 18 -7 4 1 -10 12 -25 24 -33 19 -13 24 -12 40 4 10 10 28 17 41 15 16
-3 27 5 40 27 9 17 22 31 29 31 21 0 35 37 23 60 -6 11 -15 20 -20 20 -6 0 -5
-8 1 -19z"/>
<path d="M1567 1543 c-22 -21 6 -80 34 -71 7 2 22 -6 35 -19 27 -27 43 -29 70
-9 11 9 30 12 46 9 35 -7 58 12 57 46 -1 21 -2 22 -6 6 -11 -45 -48 -60 -74
-29 -12 14 -14 14 -21 -5 -11 -30 -55 -28 -69 3 -8 18 -19 24 -38 23 -23 -2
-26 2 -24 26 2 28 1 31 -10 20z"/>
<path d="M3685 1547 c-24 -34 -19 -84 10 -103 23 -15 27 -15 50 0 45 30 29 99
-27 119 -11 4 -23 -2 -33 -16z m57 -31 c15 -34 4 -58 -24 -54 -23 3 -35 35
-24 64 8 22 35 16 48 -10z"/>
<path d="M3506 1518 c-33 -47 -11 -108 39 -108 26 0 55 33 55 63 0 22 -43 67
-64 67 -8 0 -22 -10 -30 -22z m60 -34 c6 -24 -9 -54 -27 -54 -19 0 -32 46 -20
68 14 26 39 19 47 -14z"/>
<path d="M3380 1400 c-15 -27 4 -86 31 -101 30 -16 69 13 69 51 0 58 -76 95
-100 50z m64 -19 c21 -24 13 -64 -12 -59 -19 4 -46 53 -37 68 10 16 30 12 49
-9z"/>
<path d="M3640 1383 c-37 -15 -81 -59 -105 -106 -52 -105 -25 -233 71 -337 84
-90 159 -119 224 -85 63 32 65 80 9 183 l-42 75 6 103 c4 57 4 110 1 119 -15
37 -116 66 -164 48z m119 -40 c23 -15 23 -18 17 -108 -8 -108 1 -154 45 -222
35 -56 37 -95 7 -123 -79 -74 -269 89 -293 252 -10 69 15 136 72 188 42 39 48
42 86 36 23 -4 53 -14 66 -23z"/>
<path d="M5150 5460 c0 -51 -36 -109 -81 -129 -39 -18 -42 -31 -6 -31 28 0 95
-40 112 -67 20 -29 31 -29 39 0 3 13 24 45 47 71 23 26 40 48 38 50 -2 1 -19
8 -37 16 -37 14 -79 60 -88 96 -9 34 -24 30 -24 -6z m52 -62 c18 -18 42 -38
53 -44 19 -11 18 -12 -12 -47 -17 -20 -34 -45 -38 -57 -6 -20 -8 -20 -41 14
-18 19 -43 37 -54 41 -20 6 -20 8 10 41 16 19 33 46 36 59 3 14 7 25 9 25 2 0
18 -15 37 -32z"/>
<path d="M6249 5303 c-12 -21 -24 -40 -25 -42 -2 -2 -22 13 -44 33 -22 20 -45
36 -50 36 -13 0 -13 -55 -1 -98 5 -17 8 -32 7 -32 -2 0 -24 9 -50 21 -75 33
-84 23 -42 -40 20 -29 36 -54 36 -55 0 0 -28 -2 -62 -3 -34 -1 -65 -6 -70 -11
-9 -9 57 -72 74 -72 21 0 3 -20 -44 -51 l-53 -34 53 -3 c28 -2 52 -6 52 -11 0
-4 -13 -20 -30 -36 -16 -16 -30 -32 -30 -37 0 -13 64 -9 110 7 23 8 44 15 46
15 1 0 -5 -19 -15 -42 -21 -50 -34 -98 -26 -98 4 0 27 16 53 36 l46 35 14 -60
c7 -34 17 -61 21 -61 7 0 42 72 55 113 5 15 12 12 48 -25 l43 -43 3 53 c3 46
6 53 20 47 41 -17 101 -33 106 -28 7 7 -29 76 -48 92 -26 21 -19 28 34 34 75
9 78 16 21 52 l-52 32 41 28 c37 25 60 52 60 69 0 3 -22 6 -50 6 -27 0 -50 2
-50 4 0 2 7 20 16 41 22 54 16 56 -66 21 -13 -5 -14 5 -12 64 2 42 0 70 -6 70
-6 0 -22 -14 -37 -32 -21 -25 -28 -29 -36 -17 -5 8 -9 18 -9 23 0 5 -2 7 -5 4
-3 -3 -1 -17 5 -32 6 -18 6 -32 0 -44 -6 -9 -15 -30 -21 -47 l-11 -30 -20 45
c-19 44 -19 46 -2 79 10 18 24 36 31 38 15 6 18 23 4 23 -5 0 -20 -17 -32 -37z
m-67 -30 c32 -35 64 -98 73 -145 5 -28 3 -37 -10 -42 -10 -3 -24 -1 -32 6 -24
20 -61 101 -71 156 -11 61 0 67 40 25z m194 -30 c-4 -32 -20 -87 -36 -122 -29
-61 -31 -63 -49 -47 -15 14 -17 24 -10 61 9 48 29 93 62 138 32 42 41 34 33
-30z m-287 -38 c31 -15 56 -38 70 -61 12 -20 20 -38 18 -41 -8 -8 -63 19 -90
45 -28 26 -63 82 -52 82 3 0 27 -11 54 -25z m371 -5 c0 -37 -30 -77 -69 -92
-22 -9 -41 -15 -41 -13 0 1 7 18 15 38 18 43 95 97 95 67z m45 -110 c-35 -36
-95 -66 -152 -75 -39 -6 -43 -5 -43 13 0 36 114 89 194 91 l30 1 -29 -30z
m-358 4 c57 -19 66 -26 58 -46 -9 -23 -48 -30 -102 -18 -56 13 -136 57 -128
71 10 15 120 10 172 -7z m133 -39 c26 -31 -18 -71 -47 -42 -19 19 -8 57 16 57
10 0 24 -7 31 -15z m-172 -41 c22 -6 21 -8 -17 -31 -31 -18 -52 -23 -88 -21
l-48 3 45 27 c46 28 67 33 108 22z m92 -49 c-33 -35 -136 -85 -174 -85 l-31 1
50 46 c28 25 72 56 100 69 44 21 52 22 64 9 13 -13 12 -18 -9 -40z m277 28
c39 -23 43 -28 27 -34 -39 -15 -94 -9 -125 14 l-31 22 39 12 c21 6 39 12 41
12 2 1 24 -11 49 -26z m-146 -9 c60 -30 153 -133 137 -150 -2 -2 -26 7 -53 20
-63 30 -144 114 -130 136 8 13 10 13 46 -6z m-63 -86 c-5 -91 -31 -169 -49
-151 -15 15 -15 150 0 196 9 27 18 37 33 37 19 0 20 -5 16 -82z m-74 -12 c-6
-39 -13 -52 -46 -77 -21 -17 -41 -29 -44 -26 -10 9 38 112 63 135 14 13 27 21
29 19 2 -2 1 -25 -2 -51z m166 -73 l-1 -48 -40 43 c-31 33 -40 49 -35 65 3 12
6 30 6 40 0 14 8 10 35 -17 30 -31 35 -42 35 -83z"/>
<path d="M1165 5088 c-34 -41 -95 -153 -95 -177 0 -22 -18 -11 -24 15 -10 40
-97 120 -145 135 -23 7 -44 9 -48 5 -10 -10 14 -142 33 -179 9 -18 25 -42 36
-53 l19 -21 -47 -12 c-26 -7 -63 -20 -84 -31 -37 -19 -100 -82 -100 -100 0
-14 48 -24 115 -24 53 0 118 22 185 61 3 2 5 -32 6 -75 0 -88 26 -161 74 -207
l29 -27 22 73 c24 76 31 193 16 236 -8 22 -8 22 34 8 79 -28 190 -12 249 36
24 21 24 21 5 36 -41 31 -120 62 -189 74 -39 7 -72 13 -74 15 -2 1 4 16 13 33
33 64 43 221 15 221 -5 0 -25 -19 -45 -42z m42 -60 c-3 -40 -16 -82 -35 -120
l-31 -58 42 0 c23 0 62 -5 87 -10 49 -11 160 -60 160 -71 0 -3 -22 -16 -49
-28 -71 -30 -151 -28 -218 6 -61 30 -67 43 -20 44 17 0 41 4 51 8 18 7 16 9
-14 19 -42 15 -63 14 -30 -1 24 -11 24 -11 -12 -15 -37 -3 -38 -4 -38 -45 0
-47 -12 -41 -30 16 -6 20 -16 37 -21 37 -14 0 -59 47 -59 61 0 6 16 -3 37 -21
l36 -32 14 26 c8 15 11 31 8 36 -15 25 87 210 116 210 8 0 10 -19 6 -62z
m-289 3 c46 -24 119 -101 128 -135 3 -14 10 -26 15 -26 5 0 9 -7 9 -15 0 -21
-10 -18 -50 16 -29 25 -36 27 -38 13 -2 -9 6 -30 18 -46 27 -36 20 -45 -20
-28 -35 14 -65 49 -86 99 -16 38 -30 141 -20 141 4 0 24 -9 44 -19z m122 -245
c-20 -19 -65 -32 -55 -16 7 11 41 28 60 29 5 1 3 -5 -5 -13z m-76 -17 l-19
-22 38 5 c20 2 37 1 37 -3 0 -15 -93 -68 -141 -79 -49 -12 -139 -6 -139 9 0
16 67 71 110 90 25 11 65 21 89 21 l44 0 -19 -21z m111 -39 c20 -60 32 -64 37
-12 l4 37 18 -40 c15 -32 17 -56 13 -120 -5 -82 -27 -161 -43 -159 -5 1 -22
27 -39 59 -26 51 -30 69 -30 139 0 65 5 116 14 144 4 10 12 -5 26 -48z"/>
<path d="M1104 4898 c-10 -12 -14 -18 -7 -15 7 4 13 0 15 -10 3 -11 6 -5 9 15
3 17 5 32 4 32 -1 0 -10 -10 -21 -22z"/>
<path d="M1101 4824 c0 -11 3 -14 6 -6 3 7 2 16 -1 19 -3 4 -6 -2 -5 -13z"/>
<path d="M6907 4571 c-5 -22 -18 -38 -43 -53 -33 -20 -35 -22 -16 -29 24 -9
52 -47 52 -71 0 -24 17 -23 25 2 3 11 25 35 47 55 33 27 37 35 22 35 -27 1
-52 22 -67 60 l-14 32 -6 -31z m38 -105 l-30 -33 -27 31 -26 31 25 27 26 27
31 -25 32 -26 -31 -32z"/>
<path d="M1470 4155 c0 -56 -57 -123 -125 -145 -19 -6 -35 -15 -35 -18 0 -4
25 -20 56 -37 65 -35 112 -84 121 -126 7 -38 20 -37 28 4 16 73 71 145 128
166 16 6 25 16 22 21 -4 6 -11 8 -16 4 -18 -11 -78 17 -108 51 -16 18 -35 50
-42 69 -15 42 -29 47 -29 11z m63 -101 c16 -18 37 -36 48 -39 18 -6 18 -9 -11
-42 -29 -33 -49 -69 -65 -118 -6 -18 -8 -17 -19 10 -12 29 -72 88 -111 111
-17 9 -15 12 19 32 20 12 49 42 64 66 23 38 29 43 37 29 6 -9 23 -31 38 -49z"/>
<path d="M6600 3550 c0 -40 -39 -99 -83 -125 -24 -14 -51 -25 -60 -25 -34 0
-16 -27 34 -50 59 -28 117 -88 126 -130 7 -39 18 -31 31 23 16 60 63 122 111
143 44 19 45 34 2 34 -44 0 -93 39 -121 97 -26 55 -40 66 -40 33z m100 -135
l31 -16 -28 -28 c-29 -29 -45 -56 -63 -105 l-11 -30 -18 30 c-17 28 -72 81
-108 104 -14 9 -15 12 -4 17 28 11 89 74 101 103 l12 30 29 -44 c15 -25 42
-52 59 -61z"/>
</g>
</svg>
